<?xml version="1.0" encoding="utf-8"?>
<!-- Generator: Adobe Illustrator 25.1.0, SVG Export Plug-In . SVG Version: 6.00 Build 0)  -->
<svg version="1.1" id="Layer_1" xmlns="http://www.w3.org/2000/svg" xmlns:xlink="http://www.w3.org/1999/xlink" x="0px" y="0px"
	 viewBox="0 0 24 24" style="enable-background:new 0 0 24 24;" xml:space="preserve">
<style type="text/css">
	.st0{fill:#FFFFFF;}
</style>
<g>
	<path class="st0" d="M5.3,24c-0.2-0.1-0.4-0.1-0.6-0.2c0,0-0.1,0-0.1,0C4.8,23,5,22.2,5.1,21.4c0.4-2.2,0.5-4.4,0.3-6.7
		c-0.2-1.5-0.5-3-1-4.4C4.3,9.8,4,9.7,3.5,9.8C3.3,9.9,3.1,9.9,2.9,10c-0.1,0-0.3,0-0.4,0.1c0-0.3,0-0.5,0-0.7
		c0.4-0.1,0.7-0.2,1-0.3c0.7-0.2,1.4,0.2,1.6,0.9c0.4,1.3,0.7,2.6,0.9,3.9c0.3,2.3,0.3,4.7,0,7C5.8,21.9,5.6,22.9,5.3,24z"/>
	<path class="st0" d="M19.6,23.8c-0.2,0.1-0.5,0.1-0.7,0.2c-0.1-0.5-0.3-1-0.4-1.6c-1-4.2-0.8-8.3,0.5-12.4c0.3-0.9,1-1.3,1.9-1
		c0.3,0.1,0.5,0.1,0.8,0.2c0,0.2,0,0.5,0,0.8c-0.4-0.1-0.7-0.2-1-0.3c-0.5-0.2-0.8,0-0.9,0.5c-0.9,2.8-1.3,5.7-1,8.7
		c0.1,1.6,0.4,3.1,0.9,4.7C19.6,23.7,19.6,23.7,19.6,23.8z"/>
	<path class="st0" d="M13.6,0.1c0.2,0,0.5,0,0.7,0c0,0.1,0,0.3,0,0.4c0,0.4,0.2,0.7,0.6,0.9c0.3,0.1,0.6,0.3,0.9,0.4
		c0.1,0,0.2,0,0.2,0c1.2-0.6,2.8,0.1,3.2,1.5c0,0,0,0,0,0.1c1.5,0,2.6,0.7,3.6,1.8c0.6,0.7,1,1.5,1.1,2.4c-0.3,0-0.5,0-0.7,0.1
		c-0.2-0.5-0.3-1-0.6-1.4c-0.6-1.1-1.5-1.8-2.7-2.1c-0.3-0.1-0.6,0-0.9,0c-0.3,0-0.5-0.1-0.5-0.4c-0.1-1.2-1.3-1.8-2.3-1.2
		c-0.2,0.1-0.4,0.1-0.6,0c-0.3-0.2-0.6-0.3-1-0.5C13.9,1.7,13.5,1,13.6,0.1z"/>
	<path class="st0" d="M9.8,0c0.3,0,0.5,0,0.7,0c0.2,0.8-0.2,1.6-0.9,2C9.2,2.2,8.8,2.4,8.4,2.6C8.2,2.7,8,2.6,7.8,2.6
		C7,2.1,5.9,2.5,5.6,3.5c0,0.1-0.1,0.3-0.1,0.4c0,0.2-0.2,0.4-0.4,0.3C3.9,4,2.9,4.6,2.1,5.4C1.5,6,1.1,6.7,1,7.6c0,0,0,0.1,0,0.1
		c-0.2,0-0.5,0-0.7-0.1c0-0.2,0-0.4,0.1-0.6c0.6-1.9,1.9-3.2,3.9-3.6c0.2-0.1,0.5,0,0.7-0.1C5,3.2,5,2.9,5.1,2.8
		c0.6-1,1.8-1.4,2.9-1c0.2,0.1,0.3,0.1,0.4,0c0.2-0.1,0.5-0.2,0.8-0.4c0.5-0.2,0.7-0.5,0.7-1C9.8,0.3,9.8,0.2,9.8,0z"/>
	<path class="st0" d="M10.8,10.1c-0.2,0.2-0.3,0.4-0.5,0.6c-0.1-0.1-0.1-0.1-0.2-0.2C9.4,9.8,8.7,9.1,8,8.4C7.9,8.3,7.8,8.3,7.7,8.4
		C7,8.6,6.3,8.5,5.9,7.9C5.5,7.4,5.4,6.7,5.8,6.1c0.4-0.6,1.1-0.8,1.7-0.6C8.2,5.7,8.6,6.3,8.6,7c0,0.2-0.1,0.4-0.1,0.6
		c-0.1,0.1,0,0.2,0.1,0.3c0.7,0.7,1.4,1.4,2.1,2.1C10.7,10,10.7,10.1,10.8,10.1z M7.8,7c0-0.4-0.3-0.8-0.8-0.8
		C6.7,6.2,6.3,6.5,6.3,7c0,0.4,0.3,0.8,0.8,0.8C7.5,7.7,7.8,7.4,7.8,7z"/>
	<path class="st0" d="M12.3,17.8c-0.2,0.2-0.4,0.3-0.5,0.5c-0.1-0.1-0.1-0.1-0.2-0.2c-0.7-0.7-1.4-1.4-2.1-2.1
		C9.4,16,9.4,16,9.2,16.1c-0.6,0.3-1.4,0.1-1.8-0.4C7,15.1,7,14.3,7.3,13.8c0.4-0.6,1.1-0.8,1.8-0.6c0.7,0.2,1.1,0.8,1,1.5
		c0,0.2,0,0.4-0.1,0.5c-0.1,0.2,0,0.3,0.1,0.4c0.7,0.7,1.4,1.4,2.1,2.1C12.2,17.7,12.3,17.8,12.3,17.8z M8.6,13.9
		c-0.4,0-0.8,0.3-0.8,0.8c0,0.4,0.3,0.8,0.7,0.8c0.4,0,0.8-0.3,0.8-0.8C9.4,14.2,9,13.9,8.6,13.9z"/>
	<path class="st0" d="M13.9,13.4c-0.2-0.2-0.4-0.3-0.6-0.6c0.1-0.1,0.2-0.1,0.2-0.2c0.7-0.7,1.4-1.4,2.1-2.1
		c0.1-0.1,0.1-0.2,0.1-0.3c-0.3-0.6-0.1-1.4,0.5-1.8C16.7,8,17.4,8,18,8.4c0.6,0.4,0.8,1.1,0.5,1.8c-0.2,0.6-0.9,1.1-1.6,1
		c-0.2,0-0.3,0-0.5-0.1c-0.2-0.1-0.3,0-0.4,0.1c-0.7,0.7-1.4,1.4-2,2C14,13.2,14,13.3,13.9,13.4z M17.1,10.4c0.4,0,0.8-0.4,0.8-0.8
		c0-0.4-0.3-0.8-0.8-0.8c-0.4,0-0.8,0.4-0.8,0.8C16.3,10.1,16.7,10.4,17.1,10.4z"/>
	<path class="st0" d="M12.4,22.6c-0.2-0.2-0.3-0.4-0.5-0.6c0,0,0.1-0.1,0.1-0.2c0.7-0.7,1.4-1.4,2.1-2.1c0.1-0.1,0.2-0.2,0.1-0.4
		c-0.3-0.7-0.1-1.4,0.6-1.9c0.6-0.4,1.4-0.3,1.9,0.2c0.5,0.5,0.6,1.3,0.2,1.9c-0.4,0.6-1.2,0.8-1.9,0.6c-0.2-0.1-0.2,0-0.3,0.1
		c-0.7,0.7-1.4,1.4-2.1,2.1C12.5,22.5,12.4,22.5,12.4,22.6z M16.3,18.9c0-0.4-0.3-0.8-0.8-0.8c-0.4,0-0.8,0.3-0.8,0.8
		c0,0.4,0.3,0.8,0.8,0.8C16,19.7,16.3,19.3,16.3,18.9z"/>
	<path class="st0" d="M10.6,7.7c0.3,0,0.5,0,0.7,0c0,0.4,0,0.7,0,1.1c-0.2,0-0.5,0-0.7,0C10.6,8.5,10.6,8.1,10.6,7.7z"/>
	<path class="st0" d="M7.9,11.2c0-0.3,0-0.5,0-0.7c0.4,0,0.7,0,1.1,0c0,0.2,0,0.5,0,0.7C8.6,11.2,8.3,11.2,7.9,11.2z"/>
	<path class="st0" d="M12.9,10.4c0.3,0,0.5,0,0.7,0c0,0.4,0,0.7,0,1.1c-0.2,0-0.5,0-0.7,0C12.9,11.2,12.9,10.8,12.9,10.4z"/>
	<path class="st0" d="M16.3,13.1c0,0.3,0,0.5,0,0.7c-0.4,0-0.7,0-1.1,0c0-0.2,0-0.5,0-0.7C15.5,13.1,15.9,13.1,16.3,13.1z"/>
	<path class="st0" d="M12.8,16.6c-0.3,0-0.5,0-0.7,0c0-0.4,0-0.7,0-1.1c0.2,0,0.5,0,0.7,0C12.8,15.8,12.8,16.2,12.8,16.6z"/>
	<path class="st0" d="M10.5,18.1c0,0.2,0,0.5,0,0.7c-0.4,0-0.7,0-1.1,0c0-0.2,0-0.5,0-0.7C9.8,18.1,10.1,18.1,10.5,18.1z"/>
	<path class="st0" d="M11.7,21.2c-0.3,0-0.5,0-0.7,0c0-0.4,0-0.7,0-1.1c0.2,0,0.5,0,0.7,0C11.7,20.4,11.7,20.8,11.7,21.2z"/>
	<path class="st0" d="M13.2,23.5c0-0.1,0-0.2,0-0.2c0-0.2,0-0.3,0-0.5c0.4,0,0.7,0,1.1,0c0,0.2,0,0.5,0,0.7
		C14,23.5,13.6,23.5,13.2,23.5z"/>
</g>
</svg>
