<?xml version="1.0" encoding="utf-8"?>
<!-- Generator: Adobe Illustrator 25.1.0, SVG Export Plug-In . SVG Version: 6.00 Build 0)  -->
<svg version="1.1" id="Layer_1" xmlns="http://www.w3.org/2000/svg" xmlns:xlink="http://www.w3.org/1999/xlink" x="0px" y="0px"
	 viewBox="0 0 24 24" style="enable-background:new 0 0 24 24;" xml:space="preserve">
<style type="text/css">
	.st0{fill:#FFFFFF;}
</style>
<g>
	<path class="st0" d="M12.3,0c0.4,0.1,0.7,0.2,1,0.4c0.6,0.4,1,1,1.1,1.7c0,0.5,0,1.1,0,1.6c0,0.7-0.4,1.2-0.9,1.6
		c-0.1,0.1-0.2,0.2-0.2,0.4c0,0.2,0,0.4,0,0.6c1.8,0,3.6,0,5.4,0c0,0.2,0,0.5,0,0.7c-0.4,0-0.9,0-1.3,0c0,0.4,0,0.8,0,1.2
		c0.1,0,0.1,0,0.2,0c1.6,0,3.3,0,4.9,0c0.4,0,0.7-0.2,0.7-0.6c0-0.4-0.3-0.7-0.7-0.7c-0.9,0-1.9,0-2.8,0c-0.1,0-0.2,0-0.3,0
		c0-0.2,0-0.5,0-0.7c0.1,0,0.2,0,0.2,0c0.9,0,1.8,0,2.7,0C23.4,6.3,24,7,24,7.7C24,8.5,23.4,9,22.5,9c-2.3,0-4.7,0-7,0
		c-0.1,0-0.2,0-0.3,0c0,0.3,0,0.5,0,0.7c0.5,0.1,1,0.5,1.2,1c0.2,0.5,0.2,1.1-0.1,1.6c0.4,0.4,0.8,0.8,1.1,1.1
		c0.1,0.1,0.2,0.1,0.3,0.1c1.2,0,2.3,0,3.5,0c0.1,0,0.2,0,0.3,0c0,0.2,0,0.5,0,0.7c-0.1,0-0.2,0-0.2,0c-1.3,0-2.5,0-3.8,0
		c-0.2,0-0.3,0-0.4-0.2c-0.4-0.4-0.8-0.8-1.2-1.2c-0.2,0.1-0.4,0.2-0.6,0.3c-0.1,0-0.1,0.2-0.1,0.2c0,1.1,0,2.3,0,3.4
		c0,0.1,0,0.2,0,0.3c-0.2,0-0.5,0-0.7,0c0-0.6,0-1.3,0-1.9c-0.1,0-0.2,0-0.3,0c-1,0-2,0-3.1,0c-0.2,0-0.2,0.1-0.3,0.2
		c-0.2,0.5-0.5,0.9-1.1,1.1c-0.2,0.1-0.2,0.2-0.2,0.3c0,1.4,0,2.9,0,4.3c0,0.1,0,0.2,0,0.3c-0.2,0-0.4,0-0.7,0c0-0.1,0-0.2,0-0.3
		c0-1.4,0-2.9,0-4.3c0-0.2,0-0.2-0.2-0.3c-1-0.3-1.5-1.4-1.1-2.3c0.1-0.1,0-0.2-0.1-0.3c-0.3-0.3-0.6-0.6-1-0.9
		c-0.1-0.1-0.2-0.1-0.3-0.1c-1.1,0-2.1,0-3.2,0c-0.1,0-0.2,0-0.3,0c0-0.2,0-0.5,0-0.7c0.1,0,0.2,0,0.2,0c1.2,0,2.4,0,3.5,0
		c0.1,0,0.3,0.1,0.3,0.1c0.4,0.4,0.8,0.8,1.2,1.2c0.2-0.1,0.5-0.2,0.7-0.3c0,0,0.1-0.1,0.1-0.2c0-1.3,0-2.6,0-3.9C7.3,9,5.8,9,4.3,9
		c0-0.2,0-0.5,0-0.7c0.8,0,1.5,0,2.3,0c0-0.4,0-0.8,0-1.3c0,0-0.1,0-0.2,0c-1.7,0-3.3,0-5,0C0.9,7.1,0.6,7.6,0.8,8
		C1,8.3,1.2,8.3,1.5,8.3c0.6,0,1.2,0,1.8,0c0.1,0,0.2,0,0.3,0c0,0.2,0,0.5,0,0.7C3.5,9,3.4,9,3.3,9C2.7,9,2.1,9,1.4,9
		C0.6,9,0,8.4,0,7.7c0-0.7,0.6-1.3,1.4-1.3c3,0,5.9,0,8.9,0c0.1,0,0.2,0,0.3,0c0-0.3,0-0.5,0-0.8c0-0.1-0.1-0.1-0.1-0.2
		c-0.7-0.5-1-1.2-1-2.1c0-0.4,0-0.9,0-1.3c0.2-1,0.9-1.8,2-2c0,0,0.1,0,0.1,0C11.9,0,12.1,0,12.3,0z M16.7,7.1c-1.1,0-2.2,0-3.3,0
		c-0.1,0-0.3,0.1-0.3,0.1c-0.6,0.6-1.5,0.6-2.2,0c-0.1-0.1-0.2-0.1-0.3-0.1c-1,0-2,0-3.1,0c-0.1,0-0.1,0-0.2,0c0,0.4,0,0.8,0,1.3
		c0.7,0,1.5,0,2.2,0c0,0.1,0,0.2,0,0.3c0,1.4,0,2.8,0,4.2c0,0.2,0,0.3,0.2,0.3c0.4,0.1,0.7,0.4,0.9,0.8c0.1,0.2,0.2,0.4,0.2,0.5
		c1.2,0,2.3,0,3.5,0c0-0.4,0-0.7,0-1.1c0-0.1-0.1-0.2-0.2-0.2c-0.8-0.3-1.2-0.9-1.2-1.7c0-0.8,0.5-1.4,1.2-1.7
		c0.2,0,0.2-0.1,0.2-0.3c0-0.4,0-0.8,0-1.2c0.4,0,0.8,0,1.1,0c0.4,0,0.7,0,1.1,0c0-0.1,0-0.2,0-0.2C16.7,7.8,16.7,7.4,16.7,7.1z
		 M10.3,2.6c0,0.4,0,0.7,0,1c0,0.8,0.6,1.5,1.5,1.7c0.8,0.1,1.6-0.4,1.9-1.1c0-0.1,0-0.2,0-0.3c-0.3-0.4-0.6-0.8-0.8-1.1
		c0-0.1-0.1-0.1-0.2-0.1C11.8,2.6,11.1,2.6,10.3,2.6z M13.8,11.5c0,0.6,0.5,1.1,1.1,1.1c0.6,0,1.1-0.5,1.1-1.1c0-0.6-0.5-1-1-1
		C14.2,10.4,13.8,10.9,13.8,11.5z M8.2,14.8c0,0.6,0.5,1.1,1,1.1c0.6,0,1.1-0.5,1.1-1.1c0-0.6-0.5-1-1-1C8.6,13.8,8.2,14.2,8.2,14.8
		z M13.7,2.8c0.2-1-0.5-1.9-1.4-2.1c-0.8-0.2-1.8,0.4-1.9,1.1c0.8,0,1.6,0,2.3,0c0.2,0,0.4,0,0.5,0.2C13.4,2.3,13.6,2.6,13.7,2.8z
		 M12.7,5.9c-0.5,0-0.9,0-1.4,0c0.1,0.3-0.2,0.6,0.2,0.9c0.3,0.2,0.6,0.2,0.9,0C12.9,6.6,12.6,6.2,12.7,5.9z"/>
	<path class="st0" d="M11.7,24c0-1.9,0-3.7,0-5.6c0-0.3,0-0.7,0-1.1c0.2,0,0.4,0,0.7,0c0,0.1,0,0.2,0,0.3c0,2,0,4.1,0,6.1
		c0,0.1,0,0.2,0,0.3C12.1,24,11.9,24,11.7,24z"/>
	<path class="st0" d="M19.8,18.8c-0.1,0-0.3,0-0.4,0c-0.6,0-1.2,0-1.8,0c-0.1,0-0.2,0-0.3,0.1c-0.3,0.3-0.6,0.6-0.9,0.9
		c0.1,0.2,0.2,0.5,0.2,0.7c0.1,0.9-0.3,1.7-1.2,1.9c-0.2,0-0.2,0.1-0.2,0.3c0,0.4,0,0.8,0,1.2c-0.2,0-0.5,0-0.7,0c0-0.4,0-0.8,0-1.2
		c0-0.2,0-0.2-0.2-0.3c-0.7-0.2-1.2-0.9-1.2-1.7c0-0.8,0.5-1.4,1.2-1.7c0.2-0.1,0.2-0.1,0.2-0.3c0-0.3,0-0.7,0-1c0.2,0,0.5,0,0.7,0
		c0,0.3,0,0.7,0,1c0,0.2,0,0.2,0.2,0.3c0.2,0,0.3,0.1,0.5,0.2c0.4-0.3,0.7-0.7,1.1-1.1c0.1-0.1,0.2-0.1,0.2-0.1c0.9,0,1.7,0,2.6,0
		C19.8,18.4,19.8,18.6,19.8,18.8z M13.8,20.8c0,0.6,0.5,1.1,1.1,1c0.6,0,1-0.5,1-1c0-0.6-0.5-1.1-1.1-1.1
		C14.2,19.7,13.8,20.2,13.8,20.8z"/>
	<path class="st0" d="M18.6,22.6c0-0.2,0-0.4,0-0.7c1.1,0,2.2,0,3.4,0c0-1.1,0-2.3,0-3.4c0.2,0,0.5,0,0.7,0c0,1.4,0,2.7,0,4.1
		C21.3,22.6,19.9,22.6,18.6,22.6z"/>
	<path class="st0" d="M22,2c-1.2,0-2.3,0-3.4,0c0-0.2,0-0.4,0-0.7c1.4,0,2.7,0,4.1,0c0,1.4,0,2.7,0,4.1c-0.2,0-0.4,0-0.7,0
		C22,4.3,22,3.1,22,2z"/>
	<path class="st0" d="M2.1,21.9c1.1,0,2.3,0,3.4,0c0,0.2,0,0.5,0,0.7c-1.4,0-2.7,0-4.1,0c0-1.4,0-2.7,0-4.1c0.2,0,0.4,0,0.7,0
		C2.1,19.7,2.1,20.8,2.1,21.9z"/>
	<path class="st0" d="M1.4,1.3c1.4,0,2.7,0,4.1,0c0,0.2,0,0.4,0,0.7C4.3,2,3.2,2,2.1,2c0,1.1,0,2.2,0,3.4c-0.2,0-0.5,0-0.7,0
		C1.4,4,1.4,2.7,1.4,1.3z"/>
	<path class="st0" d="M9.5,22.1c0,0.6,0,1.2,0,1.8c-0.2,0-0.4,0-0.7,0c0-0.6,0-1.2,0-1.8C9.1,22.1,9.3,22.1,9.5,22.1z"/>
	<path class="st0" d="M10.3,9c0.2,0,0.4,0,0.7,0c0,0.6,0,1.2,0,1.8c-0.2,0-0.4,0-0.7,0C10.3,10.2,10.3,9.6,10.3,9z"/>
	<path class="st0" d="M10.3,11.5c0.2,0,0.4,0,0.7,0c0,0.2,0,0.4,0,0.7c-0.2,0-0.4,0-0.7,0C10.3,12,10.3,11.8,10.3,11.5z"/>
</g>
</svg>
