<svg width="24" height="24" viewBox="0 0 24 24" fill="none" xmlns="http://www.w3.org/2000/svg">
<path d="M12 0C9.81333 0 7.8 0.533333 5.96 1.6C4.12 2.66667 2.66667 4.12 1.6 5.96C0.533333 7.8 0 9.81333 0 12C0 14.1867 0.533333 16.2 1.6 18.04C2.66667 19.88 4.12 21.3333 5.96 22.4C7.8 23.4667 9.81333 24 12 24C14.1867 24 16.2 23.4667 18.04 22.4C19.88 21.3333 21.3333 19.88 22.4 18.04C23.4667 16.2 24 14.1867 24 12C24 9.81333 23.4667 7.8 22.4 5.96C21.3333 4.12 19.88 2.66667 18.04 1.6C16.2 0.533333 14.1867 0 12 0ZM18.88 10L11.36 17.52C11.04 17.84 10.64 18 10.16 18C9.68 18 9.28 17.84 8.96 17.52L5.12 13.68C4.8 13.36 4.64 12.96 4.64 12.48C4.64 12 4.8 11.6 5.12 11.28C5.44 10.96 5.84 10.8 6.32 10.8C6.8 10.8 7.2 10.96 7.52 11.28L10.16 13.92L16.48 7.6C16.8 7.22667 17.2 7.04 17.68 7.04C18.16 7.04 18.56 7.21333 18.88 7.56C19.2 7.90667 19.36 8.30667 19.36 8.76C19.36 9.21333 19.2 9.62667 18.88 10Z" fill="#5BB286"/>
</svg>
