<?xml version="1.0" encoding="utf-8"?>
<!-- Generator: Adobe Illustrator 25.1.0, SVG Export Plug-In . SVG Version: 6.00 Build 0)  -->
<svg version="1.1" id="Layer_1" xmlns="http://www.w3.org/2000/svg" xmlns:xlink="http://www.w3.org/1999/xlink" x="0px" y="0px"
	 viewBox="0 0 300 300" style="enable-background:new 0 0 300 300;" xml:space="preserve">
<style type="text/css">
	.st0{fill:#5BB286;}
	.st1{fill:#2A5550;}
	.st2{fill:#FCFCFC;}
	.st3{font-family:'Philosopher-Bold';}
	.st4{font-size:55px;}
</style>
<g id="_x33_23">
	<g>
		<g>
			<g>
				<polygon class="st0" points="29.7,247.2 10.8,242.2 35.3,188.6 				"/>
			</g>
		</g>
		<g>
			<g>
				<polygon class="st1" points="13.3,217.4 2.1,212.2 28,187.5 				"/>
			</g>
		</g>
		<g>
			<g>
				<polygon class="st0" points="275.5,68.5 297,84 256.4,141.7 				"/>
			</g>
		</g>
		<g>
			<g>
				<polygon class="st1" points="285.2,119.8 294.6,127.9 263.1,144.8 				"/>
			</g>
		</g>
		<g>
			<g>
				<path class="st1" d="M252.4,78.6c0.2-4.4-1.6-8.6-4.9-11.6c-3.3-2.9-7.7-4.2-12.1-3.5l-215.5,35c-3.9,0.7-7.4,2.8-9.6,6
					c-2.2,3.2-3.1,7.3-2.4,11.2l9.9,52.6c1.4,7.6,8.4,12.7,16,11.9l203-22.6c7.2-0.8,12.7-6.7,13-14L252.4,78.6z"/>
			</g>
		</g>
		<g>
			<g>
				<path class="st0" d="M234.4,161.2c0.6-6.8-1.9-13.6-7-18.3c-5-4.7-11.9-6.8-18.7-5.7L62.6,160.7c-6.2,1-11.7,4.6-15.2,9.9
					s-4.4,11.8-2.8,17.9l7.4,27.2c2.9,10.6,13,17.5,23.8,16.3l135.4-14.6c10.6-1.1,18.8-9.6,19.8-20.1L234.4,161.2z"/>
			</g>
		</g>
	</g>
</g>
<g id="Layer_1_21_">
</g>
<text transform="matrix(0.9876 -0.1571 0.1571 0.9876 26.8108 150.0396)" class="st2 st3 st4">Evaluare</text>
<text transform="matrix(0.9876 -0.1571 0.1571 0.9876 63.9174 213.4684)" class="st2 st3 st4">Online</text>
</svg>
