<?xml version="1.0" encoding="utf-8"?>
<!-- Generator: Adobe Illustrator 25.1.0, SVG Export Plug-In . SVG Version: 6.00 Build 0)  -->
<svg version="1.1" id="Layer_1" xmlns="http://www.w3.org/2000/svg" xmlns:xlink="http://www.w3.org/1999/xlink" x="0px" y="0px"
	 viewBox="0 0 24 24" style="enable-background:new 0 0 24 24;" xml:space="preserve">
<style type="text/css">
	.st0{fill:#FFFFFF;}
</style>
<g>
	<path class="st0" d="M21.4,9.4c0,0.2,0,0.5,0,0.8c-0.3-0.1-0.7-0.1-1-0.2c-0.5-0.2-0.8,0-0.9,0.5c-1,3-1.3,6-0.9,9.1
		c0.1,1.3,0.4,2.6,0.8,3.8c0,0.1,0,0.1,0.1,0.2c-0.2,0.1-0.5,0.1-0.7,0.2c-0.1-0.4-0.2-0.8-0.3-1.1c-0.6-2.4-0.8-4.8-0.6-7.2
		c0.1-1.8,0.5-3.6,1.1-5.3c0.3-0.8,1-1.1,1.8-0.9C20.8,9.3,21.1,9.3,21.4,9.4z"/>
	<path class="st0" d="M4.7,23.5c0.2-1.2,0.5-2.4,0.7-3.5c0.3-1.7,0.3-3.4,0.1-5.2c-0.2-1.5-0.5-3-1-4.5C4.4,9.9,4.1,9.8,3.6,9.9
		c-0.3,0.1-0.6,0.2-1,0.2c0-0.3,0-0.5,0-0.7c0.3-0.1,0.7-0.2,1-0.3C4.3,9,5,9.3,5.2,10c0.4,1.3,0.7,2.6,0.9,3.9
		c0.2,1.5,0.3,3,0.2,4.5c-0.1,1.8-0.4,3.5-1,5.2c0,0,0,0.1-0.1,0.1C5.1,23.7,4.9,23.6,4.7,23.5z"/>
	<path class="st0" d="M12.2,10.5c-1.1,0-2-0.2-2.7-0.8c-1.1-0.8-1.1-2.2,0-3c0.9-0.6,1.9-0.8,3-0.7c0.8,0.1,1.5,0.3,2.1,0.7
		c1.1,0.8,1.1,2.1,0,2.9c-0.4,0.3-0.8,0.5-1.2,0.6C12.9,10.4,12.5,10.5,12.2,10.5z M12,9.8c0.7,0,1.4-0.1,1.9-0.5
		c0.9-0.6,0.9-1.5,0-2c-1.3-0.7-2.6-0.7-3.9,0c-0.9,0.5-0.9,1.4,0,2C10.6,9.6,11.3,9.7,12,9.8z"/>
	<path class="st0" d="M12,16.5c-0.9,0-1.8-0.2-2.6-0.8c-1.1-0.8-1.1-2-0.1-2.9c0.3-0.2,0.6-0.4,1-0.6c1.2-0.5,2.5-0.4,3.7,0.1
		c0.2,0.1,0.4,0.2,0.6,0.3c1.1,0.8,1.1,2.1,0,3C13.8,16.3,12.9,16.5,12,16.5z M12,15.8c0.7,0,1.4-0.1,1.9-0.5c0.9-0.6,0.9-1.5,0-2
		c-1.3-0.7-2.6-0.7-3.9,0c-0.9,0.5-0.9,1.4,0,2C10.6,15.6,11.3,15.7,12,15.8z"/>
	<path class="st0" d="M11.9,22.5c-0.8,0-1.7-0.2-2.4-0.8c-1.1-0.8-1.1-2-0.1-2.9c0.3-0.2,0.6-0.4,1-0.6c1.2-0.5,2.5-0.4,3.7,0.1
		c0.2,0.1,0.4,0.2,0.6,0.3c1.1,0.8,1.1,2.1,0,3C13.9,22.2,13,22.5,11.9,22.5z M12,21.8c0.7,0,1.3-0.1,1.9-0.5c0.9-0.6,0.9-1.4,0-2
		c-1.3-0.7-2.6-0.7-3.9,0c-0.9,0.5-0.9,1.4,0,1.9c0.1,0.1,0.2,0.1,0.4,0.2C10.9,21.7,11.4,21.8,12,21.8z"/>
	<path class="st0" d="M10.5,0.4c0.1,1-0.3,1.6-1.2,2C9,2.5,8.7,2.7,8.4,2.8C8.2,2.9,8.1,3,7.9,2.8c-1-0.6-2.2,0-2.3,1.2
		c0,0.3-0.2,0.4-0.5,0.4c-0.6-0.1-1.2,0-1.8,0.3c-1.2,0.7-2,1.6-2.3,3.1c-0.2,0-0.5,0-0.7,0c0-1.8,2.2-4.3,4.5-4.1
		C5,3.2,5.3,2.7,5.7,2.4C6.3,1.8,7.1,1.7,8,2c0.2,0.1,0.3,0.1,0.4,0c0.2-0.1,0.5-0.2,0.7-0.3c0.5-0.2,0.7-0.5,0.7-1
		c0-0.1,0-0.2,0-0.3C10,0.4,10.2,0.4,10.5,0.4z"/>
	<path class="st0" d="M13.5,0.4c0.2,0,0.5,0,0.7,0c0,0.1,0,0.3,0,0.4c0,0.4,0.2,0.7,0.6,0.8c0.3,0.1,0.6,0.3,0.9,0.4
		c0.1,0,0.2,0,0.2,0c1.3-0.5,2.6,0.1,3.1,1.4c0,0.1,0.1,0.1,0.2,0.1c0.7,0,1.3,0.2,1.9,0.5c1.3,0.7,2.1,1.8,2.5,3.2
		c0,0.1,0,0.1,0,0.2c0,0.1,0,0.1,0,0.2c-0.2,0-0.5,0-0.7,0.1c-0.1-0.6-0.3-1.2-0.7-1.7c-0.6-0.9-1.4-1.5-2.5-1.7
		c-0.3-0.1-0.5,0-0.8,0c-0.3,0-0.5-0.1-0.5-0.4c-0.1-1.2-1.2-1.8-2.3-1.2c-0.2,0.1-0.3,0.1-0.5,0c-0.3-0.2-0.6-0.3-1-0.5
		C13.8,2,13.4,1.3,13.5,0.4z"/>
	<path class="st0" d="M12,7.8c0-0.2,0-0.4,0-0.7c0.7,0,1.4,0.1,2,0.6c0.1,0.1,0.2,0.3,0.3,0.6c-0.4,0-0.7,0-1.1-0.1
		C12.9,7.9,12.4,7.9,12,7.8z"/>
	<path class="st0" d="M14.2,14.3c-0.3,0-0.6,0-1-0.1c-0.4-0.2-0.8-0.2-1.3-0.3c0-0.2,0-0.4,0-0.7c0.6,0,1.3,0.1,1.8,0.4
		C14.1,13.7,14.2,13.9,14.2,14.3z"/>
	<path class="st0" d="M14.3,20.3c-0.4,0-0.7,0-1.1-0.1c-0.4-0.2-0.8-0.2-1.2-0.3c0-0.2,0-0.4,0-0.7c0.7,0,1.4,0.1,2,0.6
		C14.2,19.9,14.2,20.1,14.3,20.3z"/>
</g>
</svg>
