<?xml version="1.0" encoding="utf-8"?>
<!-- Generator: Adobe Illustrator 25.1.0, SVG Export Plug-In . SVG Version: 6.00 Build 0)  -->
<svg version="1.1" id="Layer_1" xmlns="http://www.w3.org/2000/svg" xmlns:xlink="http://www.w3.org/1999/xlink" x="0px" y="0px"
	 viewBox="0 0 24 24" style="enable-background:new 0 0 24 24;" xml:space="preserve">
<style type="text/css">
	.st0{fill:#FFFFFF;}
</style>
<g>
	<path class="st0" d="M11.8,0c0.2,0.1,0.5,0.2,0.7,0.3c0.3,0.2,0.5,0.6,0.5,1c1.1-0.3,1.7-0.1,2.2,0.9C15.5,2,15.8,1.9,16.2,2
		c0.6,0.1,1.1,0.6,1.2,1.2c0.1,0.8,0.1,1.6,0.1,2.4c0.1,1.9,0.2,3.7,0.5,5.5c0,0.1,0,0.1,0,0.2c0.1,0,0.2,0,0.3,0c0.8,0,1.6,0,2.4,0
		c0.1,0,0.1,0,0.2,0c0.2,0,0.4,0.2,0.4,0.4c0,0.2-0.1,0.3-0.4,0.3c-0.8,0-1.6,0-2.4,0c-0.1,0-0.2,0-0.4,0c0,0.3,0.1,0.5,0.1,0.8
		c0,0.2,0,0.5,0,0.7c0,0.2-0.1,0.4-0.3,0.4c-0.2,0-0.3-0.1-0.4-0.3c0-0.4-0.1-0.9-0.1-1.3c0-0.2-0.1-0.3-0.3-0.2c-0.1,0-0.2,0-0.3,0
		c-0.2,0.8-0.8,0.7-1.3,0.7c-0.2,0.6-0.4,0.8-1,0.8c-0.3,0-0.7,0-1,0c-0.5,0-0.8-0.3-0.8-0.8c0-0.7,0-1.3,0-2c0-0.5,0.3-0.8,0.8-0.8
		c0.4,0,0.7,0,1.1,0c0.5,0,0.8,0.2,0.9,0.7c0.3,0,0.6,0,0.8,0.1c0.3,0.1,0.4,0.3,0.5,0.6c0.1,0,0.3,0,0.5,0c0-0.3-0.1-0.7-0.1-1
		c-0.2-1.5-0.3-3-0.4-4.5c0-0.8-0.1-1.5-0.1-2.3c0-0.5-0.4-0.8-0.8-0.8c-0.5,0-0.8,0.3-0.8,0.8c0,1.4,0,2.9,0,4.3
		c0,0.4-0.1,0.5-0.3,0.5c-0.2,0-0.4-0.2-0.4-0.5c0-1.7,0-3.4,0-5.1c0-0.3,0-0.5-0.2-0.7c-0.4-0.4-1.1-0.2-1.2,0.4c0,0.1,0,0.3,0,0.4
		c0,1.7,0,3.3,0,5c0,0.1,0,0.2,0,0.2c0,0.2-0.1,0.3-0.3,0.3c-0.2,0-0.3-0.1-0.4-0.2c0-0.1,0-0.2,0-0.3c0-2.1,0-4.1,0-6.2
		c0-0.1,0-0.3,0-0.4c-0.1-0.3-0.4-0.5-0.8-0.5c-0.4,0-0.6,0.3-0.7,0.7c0,0.1,0,0.2,0,0.3c0,1.9,0,3.8,0,5.7c0,0.1,0,0.2,0,0.2
		c0,0.2-0.1,0.3-0.3,0.3c-0.2,0-0.3-0.1-0.4-0.2c0-0.1,0-0.2,0-0.3c0-1.6,0-3.2,0-4.8c0-0.6-0.5-0.9-1-0.8C8.7,2,8.5,2.2,8.5,2.6
		c0,0.8,0,1.6,0,2.4c0,0.1,0,0.1,0,0.2c0,0.2-0.2,0.4-0.3,0.4C8,5.6,7.8,5.4,7.8,5.2c0-0.1,0-0.3,0-0.4c0-0.7,0-1.4,0-2.1
		c0-1.2,1-1.9,2.1-1.4c0,0,0,0,0.1,0c0,0,0,0,0,0c0.1-0.7,0.5-1.1,1.2-1.3C11.4,0,11.6,0,11.8,0z M14.8,11.7c0-0.3,0-0.6,0-0.9
		c0-0.1,0-0.2-0.2-0.2c-0.4,0-0.7,0-1.1,0c-0.1,0-0.2,0-0.2,0.2c0,0.6,0,1.2,0,1.8c0,0.1,0,0.2,0.2,0.2c0.4,0,0.7,0,1.1,0
		c0.2,0,0.2-0.1,0.2-0.2C14.8,12.3,14.8,12,14.8,11.7z"/>
	<path class="st0" d="M17,24c-0.2-0.1-0.2-0.3-0.2-0.5c0-1.5,0-3,0-4.5c0-0.1,0-0.2,0-0.3c-0.1,0-0.2,0-0.3,0
		c-0.1,0-0.2,0.1-0.2,0.1c-0.2,0.4-0.4,0.5-0.8,0.5c-0.1,0-0.2,0-0.3,0c-0.2,0-0.3,0-0.5,0.2c-0.3,0.3-1.4,0.3-1.7,0
		c-0.1-0.1-0.2-0.3-0.2-0.5c0-0.4,0-0.9,0-1.3c0-0.4,0.3-0.7,0.8-0.7c0.2,0,0.4,0,0.7,0c0.3,0,0.5,0.1,0.7,0.3c0,0,0.1,0.1,0.2,0.1
		c0.2,0,0.4,0,0.5,0c0.3,0,0.6,0.2,0.7,0.5c0.1,0.2,0.1,0.2,0.3,0.2c0.1,0,0.2,0,0.4,0c0.2-0.7,0.3-1.4,0.5-2.1
		c0.1-0.3,0.1-0.5,0.1-0.8c0-0.3,0.2-0.4,0.4-0.4c0.2,0,0.3,0.2,0.3,0.5c-0.1,0.8-0.3,1.7-0.5,2.5c0,0.1-0.1,0.2-0.1,0.4
		c0.5,0,0.9,0,1.4,0c0.1,0,0.2,0,0.2,0c0.2,0,0.4,0.2,0.4,0.4c0,0.2-0.2,0.3-0.4,0.3c-0.5,0-1,0-1.5,0c-0.1,0-0.2,0-0.3,0
		c0,0.1,0,0.2,0,0.3c0,1.5,0,3,0,4.5c0,0.2,0,0.4-0.2,0.5C17.1,24,17,24,17,24z M14.2,19c0-0.5,0-0.9,0-1.4c-0.3,0-0.5,0-0.8,0
		c0,0.5,0,0.9,0,1.4C13.7,19,14,19,14.2,19z M15.5,18.7c0-0.2,0-0.4,0-0.6c-0.2,0-0.4,0-0.6,0c0,0.2,0,0.4,0,0.6
		C15.2,18.7,15.3,18.7,15.5,18.7z"/>
	<path class="st0" d="M9.9,24c-0.2-0.1-0.3-0.3-0.2-0.5c0-0.3,0-0.5,0-0.8c-0.3,0-0.6-0.1-0.8-0.3c0,0-0.1,0-0.1,0
		c-0.1,0-0.3,0-0.4,0c-0.5,0-0.7-0.2-0.9-0.7c-0.2,0-0.4,0-0.6,0c-0.8,0-1.5,0-2.3,0c-0.3,0-0.4-0.1-0.4-0.4c0-0.2,0.2-0.3,0.4-0.3
		c0.9,0,1.8,0,2.6,0c0.1,0,0.2,0,0.2,0c0.2-0.6,0.4-0.7,1-0.7c0.2,0,0.4,0,0.6-0.2c0.1-0.1,0.4-0.2,0.6-0.2c0-0.2,0-0.4-0.2-0.6
		C9.2,19,9,18.8,8.7,18.6c-0.2-0.2-0.2-0.4,0-0.5c0.1-0.1,0.3-0.1,0.5,0c0.3,0.3,0.5,0.5,0.8,0.8c0.3,0.3,0.4,0.6,0.3,1.1
		c0.5,0.2,0.6,0.6,0.6,1.1c0,0.3,0,0.6,0,0.9c0,0.4-0.1,0.6-0.5,0.8c-0.1,0-0.1,0.1-0.1,0.2c0,0.2,0,0.5,0,0.7
		c0,0.2-0.1,0.4-0.2,0.5C10,24,10,24,9.9,24z M10.3,21.3c0-0.2,0-0.4,0-0.5c0-0.1-0.1-0.2-0.1-0.2c-0.2,0-0.5,0-0.7,0
		c-0.1,0,0,0.3,0,0.5c0,0.1,0,0.1,0,0.2c0,0.7,0,0.7,0.7,0.7c0,0,0,0,0,0c0.1,0,0.2,0,0.2-0.2C10.3,21.7,10.3,21.5,10.3,21.3z
		 M8.7,21.6c0-0.2,0-0.4,0-0.6c-0.2,0-0.4,0-0.6,0c0,0.2,0,0.4,0,0.6C8.3,21.6,8.5,21.6,8.7,21.6z"/>
	<path class="st0" d="M8.2,15.8c-0.4,0-0.9,0-1.3,0C6.9,15.8,7,15.9,7,15.9c0.3,0.3,0.7,0.7,1,1c0.2,0.2,0.2,0.4,0.1,0.6
		c-0.1,0.1-0.4,0.1-0.5,0c-0.5-0.5-1.1-1.1-1.6-1.6c-0.1-0.1-0.2-0.1-0.3-0.1c-0.2,0-0.5,0-0.7,0c-0.2,0-0.4-0.2-0.4-0.4
		c0-0.2,0.2-0.3,0.4-0.3c0.1,0,0.2,0,0.4,0c-0.1-0.1-0.1-0.2-0.1-0.3c-0.6-1.1-1.2-2.2-1.8-3.3c-0.5-0.9,0-2,1-2.2
		c0.5-0.1,1,0.1,1.3,0.4c0.6,0.6,1.2,1.2,1.8,1.8c0.1,0.1,0.1,0.1,0.1,0.2c0,0,0,0,0.1,0c0-0.1,0-0.2,0-0.2c0-1.5,0-3,0-4.6
		c0-0.1,0-0.2,0-0.2c0-0.2,0.2-0.3,0.4-0.3c0.2,0,0.3,0.1,0.3,0.3c0,0.1,0,0.1,0,0.2c0,1.7,0,3.4,0,5.1c0,0.3-0.1,0.5-0.4,0.7
		c-0.2,0.1-0.5,0-0.7-0.2c-0.7-0.7-1.4-1.4-2.1-2.2C5.1,9.9,4.8,9.9,4.4,10c-0.5,0.2-0.6,0.7-0.4,1.2c0.6,1,1.1,2,1.7,3
		c0.1,0.2,0.3,0.5,0.4,0.7C6.2,15,6.3,15,6.4,15c0.6,0,1.2,0,1.8,0c0-0.1,0.1-0.2,0.1-0.3c0.2-0.3,0.5-0.4,0.8-0.4
		c0.2,0,0.4,0,0.6-0.2c0.1-0.1,0.4-0.2,0.6-0.3c0.3,0,0.6,0,0.9,0c0.5,0,0.8,0.3,0.8,0.8c0,0.5,0,1,0,1.5c0,0.5-0.3,0.8-0.7,0.8
		c-0.3,0-0.7,0-1,0c-0.3,0-0.5-0.1-0.7-0.4c0-0.1-0.1-0.1-0.2-0.1c-0.1,0-0.2,0-0.3,0C8.5,16.4,8.3,16.2,8.2,15.8z M11.2,15.4
		c0-0.2,0-0.5,0-0.7c0-0.1,0-0.2-0.2-0.2c-0.2,0-0.5,0-0.7,0c-0.1,0-0.2,0-0.2,0.2c0,0.5,0,0.9,0,1.4c0,0.1,0.1,0.2,0.2,0.2
		c0.2,0,0.5,0,0.7,0c0.1,0,0.2-0.1,0.2-0.2C11.2,15.8,11.2,15.6,11.2,15.4z M9.4,15.7c0-0.2,0-0.4,0-0.6c-0.2,0-0.3,0-0.5,0
		c0,0.2,0,0.4,0,0.6C9.1,15.7,9.2,15.7,9.4,15.7z"/>
	<path class="st0" d="M3.6,18.2c-0.2,0-0.4,0-0.5,0c-0.3,0-0.4-0.2-0.3-0.5c0.2-0.5,0.4-1,0.6-1.5C3.4,16,3.5,16,3.7,16
		c0.2,0.1,0.3,0.2,0.2,0.5c-0.1,0.3-0.2,0.7-0.4,1c0.2,0,0.3,0,0.4,0c0.3,0,0.5,0.2,0.4,0.5c-0.2,0.5-0.3,1.1-0.5,1.6
		c-0.1,0.2-0.2,0.3-0.4,0.3c-0.2-0.1-0.3-0.2-0.2-0.5c0.1-0.3,0.2-0.7,0.3-1C3.6,18.4,3.6,18.3,3.6,18.2z"/>
	<path class="st0" d="M5.7,5.3c-0.2,0-0.3,0-0.5,0c-0.3,0-0.4-0.2-0.3-0.5c0.2-0.5,0.4-1,0.5-1.5C5.5,3.1,5.7,3,5.8,3.1
		C6,3.2,6.1,3.4,6,3.6c-0.1,0.3-0.2,0.7-0.4,1c0.2,0,0.3,0,0.5,0c0.3,0,0.4,0.2,0.4,0.5C6.4,5.6,6.2,6.2,6,6.7C5.9,7,5.7,7,5.6,7
		C5.4,6.9,5.3,6.7,5.3,6.5c0.1-0.3,0.2-0.7,0.3-1C5.7,5.4,5.7,5.4,5.7,5.3z"/>
	<path class="st0" d="M20.1,8.3c-0.2,0-0.3,0-0.5,0c-0.3,0-0.5-0.2-0.4-0.5c0.2-0.5,0.4-1,0.5-1.4c0.1-0.2,0.3-0.3,0.4-0.2
		c0.2,0.1,0.3,0.3,0.2,0.5c-0.1,0.3-0.2,0.6-0.3,0.8c0,0,0,0.1,0,0.2c0.2,0,0.3,0,0.5,0c0.3,0,0.4,0.2,0.4,0.4
		c-0.2,0.6-0.3,1.2-0.5,1.7c-0.1,0.2-0.3,0.3-0.4,0.2c-0.2-0.1-0.3-0.2-0.2-0.4C19.8,9.3,19.9,9,20,8.7C20,8.6,20.1,8.5,20.1,8.3z"
		/>
</g>
</svg>
