<?xml version="1.0" encoding="utf-8"?>
<!-- Generator: Adobe Illustrator 25.1.0, SVG Export Plug-In . SVG Version: 6.00 Build 0)  -->
<svg version="1.1" id="Layer_1" xmlns="http://www.w3.org/2000/svg" xmlns:xlink="http://www.w3.org/1999/xlink" x="0px" y="0px"
	 viewBox="0 0 24 24" style="enable-background:new 0 0 24 24;" xml:space="preserve">
<style type="text/css">
	.st0{fill:#FFFFFF;}
</style>
<g>
	<path class="st0" d="M0,16.1c0.3-1.4,1.2-2.5,2.2-3.5c2.7-2.8,5.5-5.3,8.7-7.4c1.5-1,3-1.8,4.7-2.3c1.3-0.4,2.6-0.5,3.9-0.2
		c1.5,0.4,2.5,1.3,2.8,2.8c0.2,0.6,0,1.3-0.2,1.9c-0.3,0.6-0.6,1.2-0.9,1.7c-0.9,1.6-0.9,3.3,0.1,4.8c0.2,0.3,0.4,0.5,0.6,0.8
		c0.2,0.2,0.3,0.4,0.5,0.5c0.7,0.7,1.3,1.4,1.5,2.4c0,0.2,0,0.4,0,0.6c0,0,0,0.1,0,0.1c-0.2,1.1-0.9,1.8-1.8,2.3
		c-0.9,0.5-1.9,0.6-2.9,0.5c-1.5-0.2-3-0.4-4.4-0.7c-1.4-0.3-2.7-0.5-4.1-0.5c-1.9,0-3.8,0.3-5.7,0.8c-0.6,0.1-1.2,0.3-1.8,0.1
		c-1.2-0.3-2.1-1.1-2.7-2.2c-0.3-0.5-0.4-1-0.6-1.6C0,16.7,0,16.4,0,16.1z M18.3,19.4C18.3,19.4,18.3,19.4,18.3,19.4
		c0.6,0,1.3-0.2,1.8-0.4c1.6-0.8,2-2.4,0.8-3.8c-0.3-0.4-0.7-0.7-1-1.1c-1.4-1.5-1.7-3.6-0.7-5.4c0.2-0.4,0.5-0.9,0.7-1.3
		c0.2-0.4,0.3-0.8,0.4-1.2c0.1-1.1-0.6-2.2-1.7-2.7c-0.5-0.2-1-0.4-1.5-0.3c-0.6,0.1-1.1,0.2-1.7,0.4c-1.7,0.6-3.3,1.5-4.8,2.5
		c-2.2,1.5-4.2,3.1-6,5c-1.1,1-2.1,2-3,3.2C1.3,14.9,1,15.4,0.8,16c0,0.1,0,0.3,0,0.4c0.2,0.7,0.5,1.3,1.1,1.8
		c0.8,0.7,1.7,1.1,2.7,0.8c1.3-0.3,2.6-0.6,3.9-0.7c1.1-0.1,2.2-0.2,3.4,0c1.1,0.2,2.2,0.4,3.3,0.6C16.3,19.1,17.3,19.3,18.3,19.4z"
		/>
</g>
</svg>
