<svg width="51" height="51" viewBox="0 0 51 51" fill="none" xmlns="http://www.w3.org/2000/svg">
<path d="M7.16963 43.0886C6.94732 42.9775 6.75279 42.9497 6.58606 43.0053C6.41933 43.0608 6.28038 43.1442 6.16923 43.2553C5.16883 44.4775 4.50189 45.8664 4.16843 47.4219L3.83496 49.5886C3.83496 49.8108 3.89054 50.0053 4.00169 50.1719C4.11285 50.3386 4.25179 50.4219 4.41853 50.4219C4.58526 50.4219 4.75199 50.3664 4.91873 50.2553C5.08546 50.1442 5.22441 49.9775 5.33556 49.7553L5.66903 47.5886C5.89134 46.3664 6.39154 45.2553 7.16963 44.2553C7.39194 44.0331 7.47531 43.8386 7.41973 43.6719C7.36415 43.5053 7.28078 43.3108 7.16963 43.0886ZM46.1852 49.5886L45.8518 47.4219C45.5183 45.7553 44.7958 44.2831 43.6842 43.0053C42.5727 41.7275 41.1832 40.8108 39.5159 40.2553C37.4039 39.5886 35.2364 39.2553 33.0133 39.2553V37.2553C33.0133 37.0331 32.9577 36.8386 32.8466 36.6719C32.7354 36.5053 32.5687 36.4219 32.3464 36.4219C32.1241 36.4219 31.9573 36.5053 31.8462 36.6719C31.735 36.8386 31.6794 37.0331 31.6794 37.2553V39.2553H18.3408V31.4219C18.3408 30.8664 18.2296 30.4775 18.0073 30.2553C17.3404 29.4775 16.6734 28.6442 16.0065 27.7553C15.3396 26.8664 14.8671 26.0053 14.5893 25.1719C14.3114 24.3386 14.1724 23.3108 14.1724 22.0886L14.8394 23.4219C15.8398 25.4219 17.257 26.9775 19.0911 28.0886C20.9251 29.1997 22.8981 29.7553 25.0101 29.7553C27.122 29.7553 29.0951 29.1997 30.9291 28.0886C32.7632 26.9775 34.1804 25.4775 35.1808 23.5886L35.8478 21.9219C35.8478 23.2553 35.7088 24.3386 35.4309 25.1719C35.153 26.0053 34.6806 26.8664 34.0137 27.7553C33.3468 28.6442 32.6798 29.4219 32.0129 30.0886C31.7906 30.4219 31.6794 30.8108 31.6794 31.2553V33.7553C31.6794 33.9775 31.735 34.1442 31.8462 34.2553C31.9573 34.3664 32.1241 34.4219 32.3464 34.4219C32.5687 34.4219 32.7354 34.3664 32.8466 34.2553C32.9577 34.1442 33.0133 33.9775 33.0133 33.7553V31.2553L33.18 31.0886C33.847 30.4219 34.4861 29.6442 35.0975 28.7553C35.7088 27.8664 36.1812 27.0331 36.5147 26.2553C37.7374 26.2553 38.7934 25.8108 39.6826 24.9219C40.5719 24.0331 41.0165 22.9219 41.0165 21.5886C41.0165 20.9219 40.7942 20.2831 40.3496 19.6719C39.9049 19.0608 39.3492 18.5886 38.6822 18.2553C39.6826 17.1442 40.2106 15.5608 40.2662 13.5053C40.3218 11.4497 39.9049 9.4775 39.0157 7.58861C38.9045 7.36639 38.7378 7.2275 38.5155 7.17195C38.2932 7.11639 38.0987 7.11639 37.9319 7.17195C37.7652 7.2275 37.654 7.36639 37.5985 7.58861C37.5429 7.81084 37.5707 7.9775 37.6818 8.08861C38.4599 9.86639 38.8212 11.6719 38.7656 13.5053C38.71 15.3386 38.2376 16.6997 37.3484 17.5886C36.2368 18.6997 35.2364 20.0886 34.3472 21.7553L33.847 22.7553C32.9577 24.4219 31.735 25.7553 30.1788 26.7553C28.6226 27.7553 26.8997 28.2553 25.0101 28.2553C23.1204 28.2553 21.3975 27.7553 19.8414 26.7553C18.2852 25.7553 17.0625 24.4775 16.1732 22.9219C15.1728 20.9219 13.839 19.1442 12.1716 17.5886C11.727 17.1442 11.3658 16.4497 11.0879 15.5053C10.81 14.5608 10.671 13.6442 10.671 12.7553C10.671 10.0886 11.3935 7.9775 12.8386 6.42195C13.3943 5.9775 14.0335 5.58861 14.756 5.25528C15.4785 4.92195 16.201 4.75528 16.9235 4.75528C17.646 4.75528 18.2852 4.92195 18.841 5.25528C19.1744 5.36639 19.4523 5.31084 19.6746 5.08861C21.0085 3.64417 22.6758 2.67195 24.6766 2.17195C26.6774 1.67195 28.845 1.75528 31.1792 2.42195C32.9577 2.86639 34.5139 3.86639 35.8478 5.42195C35.9589 5.53306 36.1256 5.58861 36.348 5.58861C36.5703 5.58861 36.7648 5.53306 36.9315 5.42195C37.0983 5.31084 37.1816 5.14417 37.1816 4.92195C37.1816 4.69973 37.126 4.53306 37.0149 4.42195C35.4587 2.64417 33.5413 1.4775 31.2626 0.921947C28.9839 0.366392 26.7608 0.310836 24.5933 0.755281C22.4257 1.19973 20.5639 2.19973 19.0077 3.75528C18.3408 3.42195 17.6738 3.25528 17.0069 3.25528C15.0061 3.25528 13.2832 3.9775 11.8382 5.42195C10.0597 7.19972 9.17043 9.64417 9.17043 12.7553C9.17043 13.7553 9.30937 14.8108 9.58726 15.9219C9.86515 17.0331 10.3376 17.8664 11.0045 18.4219C10.4487 18.7553 9.97631 19.1997 9.58726 19.7553C9.19822 20.3108 9.00369 20.9219 9.00369 21.5886C9.00369 22.9219 9.44832 24.0331 10.3376 24.9219C11.2268 25.8108 12.2828 26.2553 13.5055 26.2553C13.7278 27.0331 14.1724 27.8664 14.8394 28.7553C15.5063 29.6442 16.1732 30.4775 16.8402 31.2553L17.0069 31.4219V39.2553C15.3396 39.3664 13.9501 39.5331 12.8386 39.7553C11.3935 39.9775 10.1153 40.3664 9.00369 40.9219C8.78138 41.0331 8.64244 41.1719 8.58686 41.3386C8.53128 41.5053 8.55907 41.6997 8.67023 41.9219C8.78138 42.1442 8.92033 42.2831 9.08706 42.3386C9.25379 42.3942 9.44832 42.3664 9.67063 42.2553C11.7826 41.2553 14.5059 40.6997 17.8406 40.5886H32.1796C34.5139 40.5886 36.7926 40.9775 39.0157 41.7553C40.4607 42.0886 41.6556 42.8108 42.6005 43.9219C43.5453 45.0331 44.1288 46.2553 44.3512 47.5886L44.6846 49.7553C44.7958 49.9775 44.9347 50.1442 45.1015 50.2553C45.2682 50.3664 45.4349 50.4219 45.6017 50.4219C45.7684 50.4219 45.9073 50.3386 46.0185 50.1719C46.1297 50.0053 46.1852 49.8108 46.1852 49.5886ZM37.3484 19.5886C38.0153 19.5886 38.5433 19.7831 38.9323 20.1719C39.3214 20.5608 39.5159 21.0886 39.5159 21.7553C39.5159 22.4219 39.2936 23.0608 38.849 23.6719C38.4043 24.2831 37.793 24.6442 37.0149 24.7553C37.2372 23.7553 37.3484 22.0331 37.3484 19.5886ZM10.5043 21.5886C10.5043 21.1442 10.6432 20.7275 10.9211 20.3386C11.199 19.9497 11.6158 19.6997 12.1716 19.5886L12.6718 20.0886C12.6718 22.1997 12.783 23.7553 13.0053 24.7553C12.2272 24.6442 11.6158 24.2831 11.1712 23.6719C10.7266 23.0608 10.5043 22.3664 10.5043 21.5886ZM22.8426 34.2553C22.8426 34.8108 23.0649 35.3108 23.5095 35.7553C23.9541 36.1997 24.4543 36.4219 25.0101 36.4219C25.5659 36.4219 26.0661 36.1997 26.5107 35.7553C26.9553 35.3108 27.1776 34.7831 27.1776 34.1719C27.1776 33.5608 26.9553 33.0331 26.5107 32.5886C26.0661 32.1442 25.5659 31.9219 25.0101 31.9219C24.4543 31.9219 23.9541 32.1442 23.5095 32.5886C23.0649 33.0331 22.8426 33.5886 22.8426 34.2553ZM25.677 34.2553C25.677 34.3664 25.6215 34.5053 25.5103 34.6719C25.3991 34.8386 25.2324 34.9219 25.0101 34.9219C24.7878 34.9219 24.621 34.8386 24.5099 34.6719C24.3987 34.5053 24.3432 34.3386 24.3432 34.1719C24.3432 34.0053 24.3987 33.8386 24.5099 33.6719C24.621 33.5053 24.7878 33.4219 25.0101 33.4219C25.2324 33.4219 25.3991 33.5053 25.5103 33.6719C25.6215 33.8386 25.677 34.0331 25.677 34.2553ZM28.0113 37.4219C28.1224 37.5331 28.2892 37.5886 28.5115 37.5886C28.7338 37.5886 28.9005 37.5331 29.0117 37.4219C29.7898 36.4219 30.1788 35.3108 30.1788 34.0886C30.1788 32.8664 29.7898 31.8108 29.0117 30.9219C28.9005 30.8108 28.7338 30.7275 28.5115 30.6719C28.2892 30.6164 28.0947 30.6719 27.9279 30.8386C27.7612 31.0053 27.6778 31.1719 27.6778 31.3386C27.6778 31.5053 27.7334 31.6997 27.8446 31.9219C28.4003 32.5886 28.6782 33.3386 28.6782 34.1719C28.6782 35.0053 28.4003 35.7553 27.8446 36.4219C27.7334 36.5331 27.6778 36.6997 27.6778 36.9219C27.6778 37.1442 27.789 37.3108 28.0113 37.4219ZM22.0089 30.9219C21.8977 30.6997 21.731 30.6164 21.5087 30.6719C21.2864 30.7275 21.1196 30.8108 21.0085 30.9219C20.2304 31.9219 19.8414 33.0053 19.8414 34.1719C19.8414 35.3386 20.2304 36.3664 21.0085 37.2553C21.1196 37.4775 21.2864 37.5886 21.5087 37.5886C21.731 37.5886 21.8977 37.5331 22.0089 37.4219C22.1201 37.3108 22.2034 37.1442 22.259 36.9219C22.3146 36.6997 22.2868 36.5331 22.1756 36.4219C21.6199 35.7553 21.342 35.0053 21.342 34.1719C21.342 33.3386 21.6199 32.5886 22.1756 31.9219C22.2868 31.6997 22.3146 31.5053 22.259 31.3386C22.2034 31.1719 22.1201 31.0331 22.0089 30.9219ZM24.3432 20.0886L23.6762 25.5886C23.6762 25.9219 23.7874 26.1997 24.0097 26.4219C24.232 26.6442 24.5655 26.7553 25.0101 26.7553C25.4547 26.7553 25.7882 26.5331 26.0105 26.0886C27.9001 22.4219 29.234 19.8664 30.0121 18.4219C30.2344 17.8664 30.1788 17.3386 29.8454 16.8386C29.5119 16.3386 29.0673 16.0886 28.5115 16.0886H26.6774L28.3448 11.5886C28.3448 11.1442 28.2336 10.7553 28.0113 10.4219C27.789 10.0886 27.4555 9.92195 27.0109 9.92195H23.176C22.8426 9.92195 22.5647 10.0331 22.3424 10.2553C22.1201 10.4775 21.9533 10.7553 21.8422 11.0886L21.342 12.7553C21.342 12.9775 21.3975 13.1719 21.5087 13.3386C21.6198 13.5053 21.7588 13.6164 21.9255 13.6719C22.0923 13.7275 22.259 13.6997 22.4257 13.5886C22.5925 13.4775 22.7314 13.3108 22.8426 13.0886L23.3428 11.4219H26.8442L25.0101 16.2553C24.8989 16.5886 24.9267 16.8664 25.0935 17.0886C25.2602 17.3108 25.5103 17.4775 25.8438 17.5886H28.5115C28.5115 17.5886 28.5393 17.6164 28.5949 17.6719C28.6504 17.7275 28.6782 17.7553 28.6782 17.7553L25.1768 24.4219L26.0105 19.7553C26.0105 19.4219 25.9271 19.1719 25.7604 19.0053C25.5937 18.8386 25.3436 18.7553 25.0101 18.7553L21.342 18.5886V18.4219L21.8422 16.4219C21.9533 16.1997 21.9533 16.0053 21.8422 15.8386C21.731 15.6719 21.5921 15.5608 21.4253 15.5053C21.2586 15.4497 21.0641 15.4775 20.8418 15.5886C20.6194 15.6997 20.5083 15.8664 20.5083 16.0886L19.8414 18.0886C19.7302 18.6442 19.8414 19.1164 20.1748 19.5053C20.5083 19.8942 20.9529 20.0886 21.5087 20.0886H24.3432Z" fill="white"/>
</svg>
