<?xml version="1.0" encoding="utf-8"?>
<!-- Generator: Adobe Illustrator 25.1.0, SVG Export Plug-In . SVG Version: 6.00 Build 0)  -->
<svg version="1.1" id="Layer_1" xmlns="http://www.w3.org/2000/svg" xmlns:xlink="http://www.w3.org/1999/xlink" x="0px" y="0px"
	 viewBox="0 0 24 24" style="enable-background:new 0 0 24 24;" xml:space="preserve">
<style type="text/css">
	.st0{fill:#FFFFFF;}
</style>
<g>
	<path class="st0" d="M24,11.9c-0.2,0.6-0.7,0.8-1.3,0.7c-0.2,0-0.5,0-0.8,0c0,0.2,0,0.3,0,0.5c0,0.5-0.4,0.9-0.9,1
		c-0.3,0-0.5,0-0.8,0c-0.6,0-1-0.4-1-1c0-1.1,0-2.1,0-3.2c0-0.1,0-0.2,0-0.3c-0.4,0-0.8,0-1.2,0c0,0.2,0,0.3,0,0.5
		c0,0.7,0,1.5,0,2.2c-0.1,1-0.5,1.9-1.2,2.6c-0.1,0.2-0.3,0.3-0.4,0.4c-0.4,0.3-0.5,0.7-0.5,1.2c0,1.5,0,3,0,4.5c0,0.1,0,0.2,0,0.2
		c0,0.2-0.2,0.3-0.4,0.3c-0.2,0-0.3-0.1-0.3-0.3c0-0.1,0-0.1,0-0.2c0-1.7,0-3.5,0-5.2c0-0.2,0.1-0.3,0.2-0.5c0.3-0.4,0.7-0.7,1-1.1
		c0.6-0.7,0.9-1.6,0.9-2.5c0-1.5,0-3,0-4.5c0-0.6-0.4-1.1-1-1.1c-0.9,0-1.8,0-2.6,0C13.3,6.3,13,6.6,13,7c0,0.4,0.3,0.7,0.7,0.7
		c0.5,0,1.1,0,1.6,0c0.4,0,0.6,0.2,0.6,0.6c0,0.1,0,0.2,0,0.3c0,0.3-0.1,0.5-0.4,0.6c-0.3,0.1-0.6,0.2-0.9,0.4
		c-1.2,0.6-1.8,1.5-1.8,2.9c0,0,0,0.1,0,0.1c0,0.3-0.1,0.4-0.3,0.4c-0.2,0-0.3-0.2-0.4-0.4c0-0.8,0.2-1.5,0.6-2.2
		c0-0.1,0.1-0.1,0.1-0.2c-0.7,0.3-1.4,0.2-1.9-0.3c-0.8,0.8-1.8,0.6-2.4,0c-0.6,0.6-1.2,0.7-2,0.3c0,0.3,0,0.6,0,0.9
		c0,0.1,0,0.2,0,0.2c0,0.2-0.2,0.3-0.4,0.3c-0.2,0-0.3-0.1-0.3-0.3c0-0.4,0-0.9,0-1.3c0-0.1,0-0.2,0-0.3c-0.4,0-0.8,0-1.2,0
		c0,0.1,0,0.2,0,0.2c0,1,0,2.1,0,3.1c0,0.7-0.4,1-1,1c-0.3,0-0.5,0-0.8,0c-0.5,0-0.9-0.4-0.9-0.9c0-0.2,0-0.4,0-0.5
		c-0.4,0-0.7,0-1,0c-0.6,0-1-0.4-1-1C0,9.4,0,7.2,0,5c0-0.6,0.4-1,1-1c0.3,0,0.7,0,1,0c0-0.2,0-0.3,0-0.5c0-0.5,0.4-0.9,0.9-1
		c0.3,0,0.5,0,0.8,0c0.6,0,1,0.4,1,1c0,1.1,0,2.1,0,3.2c0,0.1,0,0.2,0,0.3c0.4,0,0.8,0,1.2,0c0-0.4,0-0.8,0-1.1
		c0-0.7,0.5-1.3,1.2-1.4c0.5-0.1,0.9,0,1.3,0.3c0,0,0.1,0.1,0.1,0.1c0,0,0.1,0.1,0.1,0.1c0.7-0.7,1.6-0.7,2.4,0
		c0.6-0.6,1.6-0.8,2.3,0c0.4-0.4,0.9-0.6,1.5-0.5c0.6,0.1,0.9,0.5,1.1,1c0,0.2,0.1,0.2,0.3,0.2c1,0,1.6,0.4,1.9,1.4
		c0.2,0,0.4,0,0.6,0c0.2,0,0.4,0,0.6,0c0-0.1,0-0.2,0-0.2c0-0.2,0.1-0.3,0.3-0.3c0.2,0,0.3,0.1,0.4,0.3c0,0.1,0,0.1,0,0.2
		c0,2,0,4.1,0,6.1c0,0.4,0,0.4,0.4,0.4c0.2,0,0.4,0,0.6,0c0.2,0,0.3-0.1,0.3-0.3c0,0,0-0.1,0-0.1c0-3.1,0-6.2,0-9.4
		c0-0.4-0.1-0.4-0.4-0.4c-0.2,0-0.4,0-0.5,0c-0.3,0-0.4,0.1-0.4,0.4c0,0.5,0,1.1,0,1.6c0,0.2-0.1,0.4-0.3,0.4
		c-0.2,0-0.4-0.1-0.4-0.3c0-0.6,0-1.3,0-1.9c0-0.5,0.4-0.8,0.9-0.8c0.3,0,0.6,0,0.9,0c0.5,0,0.9,0.4,0.9,0.9c0,0.2,0,0.4,0,0.6
		c0.3,0,0.5,0,0.7,0c0.6,0,1.1,0.1,1.3,0.7C24,7.1,24,9.5,24,11.9z M2.8,8.3c0,1.6,0,3.2,0,4.8c0,0.3,0.1,0.4,0.4,0.4
		c0.2,0,0.3,0,0.5,0c0.4,0,0.5,0,0.5-0.5c0-2.2,0-4.4,0-6.6c0-0.9,0-1.9,0-2.8c0-0.3-0.1-0.3-0.3-0.4c-0.2,0-0.4,0-0.6,0
		c-0.4,0-0.4,0.1-0.4,0.4C2.8,5.1,2.8,6.7,2.8,8.3z M2.1,8.3c0-1.1,0-2.2,0-3.3c0-0.3-0.1-0.4-0.3-0.4c-0.2,0-0.4,0-0.6,0
		C0.8,4.7,0.8,4.7,0.7,5c0,0.2,0,0.4,0,0.7c0,2,0,3.9,0,5.9c0,0.3,0.1,0.4,0.4,0.4c0.2,0,0.3,0,0.5,0c0.3,0,0.4-0.1,0.4-0.4
		C2.1,10.4,2.1,9.4,2.1,8.3z M23.3,8.3c0-1.1,0-2.2,0-3.2c0-0.3-0.1-0.4-0.4-0.4c-0.2,0-0.3,0-0.5,0c-0.4,0-0.4,0.1-0.4,0.4
		c0,0.9,0,1.8,0,2.7c0,1.3,0,2.5,0,3.8c0,0.3,0.1,0.4,0.4,0.4c0.2,0,0.3,0,0.5,0c0.3,0,0.4-0.1,0.4-0.4C23.3,10.4,23.3,9.4,23.3,8.3
		z M8.3,7.3c0-0.5,0-1,0-1.4C8.3,5.4,7.9,5,7.4,5C7,5,6.6,5.4,6.6,5.9c0,1,0,1.9,0,2.9c0,0.1,0,0.2,0,0.3c0.1,0.4,0.5,0.6,0.9,0.5
		C8,9.6,8.3,9.3,8.3,8.8C8.3,8.3,8.3,7.8,8.3,7.3z M9,7.3c0,0.5,0,1,0,1.5c0,0.5,0.3,0.9,0.8,0.9c0.5,0,0.8-0.4,0.8-0.9c0-1,0-2,0-3
		c0-0.5-0.4-0.9-0.8-0.8C9.3,5,9,5.4,9,5.8C9,6.3,9,6.8,9,7.3z M11.3,7.3C11.3,7.3,11.3,7.3,11.3,7.3c0,0.5,0,1,0,1.5c0,0,0,0,0,0
		c0,0.5,0.4,0.8,0.8,0.8c0.4,0,0.8-0.3,0.8-0.8c0-0.2,0-0.4,0-0.6c0-0.1-0.1-0.2-0.1-0.3c-0.7-0.6-0.7-1.6,0-2.2
		c0.1-0.1,0.1-0.2,0.1-0.2C12.8,5.2,12.5,5,12,5c-0.4,0-0.7,0.4-0.7,0.8C11.3,6.3,11.3,6.8,11.3,7.3z M4.8,8.9c0.4,0,0.8,0,1.1,0
		c0-0.4,0-0.8,0-1.3c-0.4,0-0.7,0-1.1,0C4.8,8.1,4.8,8.5,4.8,8.9z M18.1,7.6c0,0.4,0,0.9,0,1.3c0.4,0,0.8,0,1.1,0c0-0.4,0-0.9,0-1.3
		C18.9,7.6,18.5,7.6,18.1,7.6z M15.3,8.4C15.3,8.4,15.3,8.4,15.3,8.4c-0.6-0.1-1.1-0.1-1.6-0.1c0,0.4-0.1,0.7-0.1,1
		c0.2-0.1,0.5-0.3,0.7-0.5c0.3-0.1,0.6-0.3,0.8-0.4C15.2,8.6,15.3,8.5,15.3,8.4z M15.2,5.5C15.1,5.2,14.8,5,14.5,5
		c-0.4,0-0.6,0.2-0.7,0.5C14.2,5.5,14.7,5.5,15.2,5.5z"/>
	<path class="st0" d="M8.3,16.5c0,0.2,0,0.4,0,0.6c0,0.3-0.1,0.4-0.4,0.4c-0.2,0-0.3-0.1-0.3-0.4c0-0.3,0-0.7,0-1
		c0-0.1-0.1-0.2-0.1-0.3c-1-0.8-1.5-1.8-1.5-3c0-0.3,0.1-0.5,0.4-0.4c0.2,0,0.3,0.2,0.3,0.4c0,1.1,0.5,2,1.4,2.6
		c0.2,0.1,0.2,0.2,0.2,0.4C8.3,16.1,8.3,16.3,8.3,16.5z"/>
	<path class="st0" d="M7.6,20c0-0.4,0-0.8,0-1.2c0-0.3,0.1-0.4,0.4-0.4c0.2,0,0.3,0.2,0.3,0.4c0,0.8,0,1.6,0,2.4
		c0,0.3-0.1,0.4-0.3,0.4c-0.2,0-0.4-0.1-0.4-0.4C7.6,20.7,7.6,20.3,7.6,20z"/>
</g>
</svg>
