<svg width="51" height="51" viewBox="0 0 51 51" fill="none" xmlns="http://www.w3.org/2000/svg">
<path d="M49.3531 43.5889C48.9084 43.0333 48.4082 42.7 47.8525 42.5889C47.2967 42.4778 46.7409 42.5333 46.1851 42.7555L45.6849 42.9222C45.1292 43.1444 44.629 43.1444 44.1843 42.9222L37.515 40.4222C37.4038 40.3111 37.3483 40.2 37.3483 40.0889C36.9036 37.7555 35.8477 35.8111 34.1803 34.2555C33.958 34.0333 33.8469 33.8111 33.8469 33.5889V13.4222C33.8469 11.0889 33.0966 9.03331 31.596 7.25553C30.0954 5.47776 28.1779 4.4222 25.8437 4.08887L0.833667 0.588867C0.611356 0.588867 0.416833 0.644423 0.2501 0.755534C0.0833667 0.866645 0 1.03331 0 1.25553C0 1.47776 0.0555778 1.6722 0.166733 1.83887C0.277889 2.00553 0.444622 2.08887 0.666933 2.08887L7.83647 3.08887V5.58887C7.83647 5.69998 7.89205 5.83887 8.0032 6.00553C8.11436 6.1722 8.28109 6.25553 8.5034 6.25553C8.72571 6.25553 8.89244 6.1722 9.0036 6.00553C9.11476 5.83887 9.17033 5.69998 9.17033 5.58887V3.25553L11.6713 3.58887V20.0889H9.17033V8.58887C9.17033 8.47776 9.11476 8.33887 9.0036 8.1722C8.89244 8.00553 8.72571 7.9222 8.5034 7.9222C8.28109 7.9222 8.11436 8.00553 8.0032 8.1722C7.89205 8.33887 7.83647 8.47776 7.83647 8.58887V20.0889H0.666933C0.555778 20.0889 0.416833 20.1722 0.2501 20.3389C0.0833667 20.5055 0 20.6722 0 20.8389C0 21.0055 0.0833667 21.1722 0.2501 21.3389C0.416833 21.5055 0.555778 21.5889 0.666933 21.5889H14.8393C16.7289 21.5889 18.5074 21.1444 20.1747 20.2555V22.0889C20.1747 23.5333 20.5638 24.9222 21.3419 26.2555L22.509 28.4222C22.6202 28.5333 22.6757 28.7 22.6757 28.9222V33.9222C22.6757 34.0333 22.7313 34.1722 22.8425 34.3389C22.9536 34.5055 23.1204 34.5889 23.3427 34.5889C23.565 34.5889 23.7317 34.5055 23.8429 34.3389C23.954 34.1722 24.0096 34.0333 24.0096 33.9222V30.4222H32.513V33.5889C32.513 34.2555 32.7353 34.8111 33.1799 35.2555C34.625 36.7 35.5142 38.4222 35.8477 40.4222C35.9588 41.0889 36.3479 41.5333 37.0148 41.7555L43.6841 44.4222C44.5734 44.7555 45.4626 44.7 46.3519 44.2555L46.6853 44.0889C47.0188 43.9778 47.2967 43.95 47.519 44.0055C47.7413 44.0611 47.9636 44.2 48.1859 44.4222C48.5194 44.8666 48.6583 45.3944 48.6028 46.0055C48.5472 46.6166 48.2971 47.0889 47.8525 47.4222C47.0744 48.0889 46.2407 48.5055 45.3515 48.6722C44.4622 48.8389 43.573 48.8111 42.6837 48.5889L36.8481 46.7555C35.5142 46.5333 34.1248 46.5889 32.6797 46.9222L25.5102 48.5889C24.8433 48.7 24.1763 48.6722 23.5094 48.5055C22.8425 48.3389 22.2867 47.9778 21.8421 47.4222C21.064 46.6444 20.6749 45.7 20.6749 44.5889C20.6749 43.4778 21.064 42.5333 21.8421 41.7555L23.5094 40.0889C23.8429 39.7555 24.0096 39.3111 24.0096 38.7555V36.9222C24.0096 36.7 23.954 36.5333 23.8429 36.4222C23.7317 36.3111 23.565 36.2555 23.3427 36.2555C23.1204 36.2555 22.9536 36.3111 22.8425 36.4222C22.7313 36.5333 22.6757 36.7 22.6757 36.9222V38.7555C22.6757 38.8666 22.6202 38.9778 22.509 39.0889L20.8417 40.7555C19.7301 41.8666 19.1743 43.1444 19.1743 44.5889C19.1743 46.0333 19.6745 47.3111 20.6749 48.4222H20.8417C21.3974 49.2 22.1477 49.7 23.0926 49.9222C24.0374 50.1444 24.9544 50.1444 25.8437 49.9222L33.0132 48.2555C34.2359 48.0333 35.403 48.0333 36.5146 48.2555L42.1835 49.9222C42.8505 50.1444 43.5174 50.2555 44.1843 50.2555C45.9628 50.2555 47.4634 49.7 48.6861 48.5889C49.4642 47.9222 49.9088 47.0889 50.02 46.0889C50.1312 45.0889 49.9088 44.2555 49.3531 43.5889ZM30.5122 8.25553C31.5126 9.36664 32.124 10.6444 32.3463 12.0889H30.3455C29.4562 12.0889 28.7059 11.8389 28.0946 11.3389C27.4832 10.8389 27.122 10.2 27.0108 9.4222C26.8996 9.19998 26.7607 9.03331 26.594 8.9222C26.4272 8.81109 26.2605 8.75553 26.0938 8.75553C25.927 8.75553 25.7881 8.83887 25.6769 9.00553C25.5658 9.1722 25.5102 9.36664 25.5102 9.58887C25.7325 10.7 26.2883 11.6444 27.1775 12.4222C28.0668 13.2 29.1228 13.5889 30.3455 13.5889H32.513V15.0889H30.3455C28.567 15.0889 27.0386 14.4778 25.7603 13.2555C24.482 12.0333 23.8429 10.5333 23.8429 8.75553V5.25553L25.5102 5.58887V6.25553C25.5102 6.47776 25.5658 6.6722 25.6769 6.83887C25.7881 7.00553 25.9548 7.08887 26.1771 7.08887C26.3994 7.08887 26.5662 7.00553 26.6773 6.83887C26.7885 6.6722 26.8441 6.47776 26.8441 6.25553V5.9222C28.2891 6.36664 29.5118 7.14442 30.5122 8.25553ZM21.6753 21.2555V19.4222L22.3423 18.9222C22.5646 18.8111 22.6757 18.6444 22.6757 18.4222C22.6757 18.2 22.6202 18.0333 22.509 17.9222C22.3978 17.8111 22.2311 17.7278 22.0088 17.6722C21.7865 17.6166 21.6198 17.6444 21.5086 17.7555L20.8417 18.2555C19.619 19.1444 18.2295 19.7 16.6733 19.9222C16.6733 19.7 16.6178 19.5055 16.5066 19.3389C16.3954 19.1722 16.2287 19.0889 16.0064 19.0889C15.7841 19.0889 15.5896 19.1722 15.4228 19.3389C15.2561 19.5055 15.1727 19.7 15.1727 19.9222V20.0889H13.1719V3.75553L15.1727 4.08887V5.4222C15.1727 5.64442 15.2561 5.83887 15.4228 6.00553C15.5896 6.1722 15.7841 6.25553 16.0064 6.25553C16.2287 6.25553 16.3954 6.1722 16.5066 6.00553C16.6178 5.83887 16.6733 5.64442 16.6733 5.4222V4.25553L22.3423 5.08887V8.75553C22.3423 10.8666 23.1204 12.7 24.6765 14.2555C26.2327 15.8111 28.1224 16.5889 30.3455 16.5889H32.513V21.2555H31.8461C31.6238 21.2555 31.457 21.3389 31.3459 21.5055C31.2347 21.6722 31.1791 21.8389 31.1791 22.0055C31.1791 22.1722 31.2347 22.3389 31.3459 22.5055C31.457 22.6722 31.6238 22.7555 31.8461 22.7555H32.513V25.2555H22.3423C22.0088 24.4778 21.7865 23.6444 21.6753 22.7555H22.1755C22.3978 22.7555 22.5646 22.6722 22.6757 22.5055C22.7869 22.3389 22.8425 22.1722 22.8425 22.0055C22.8425 21.8389 22.7869 21.6722 22.6757 21.5055C22.5646 21.3389 22.3978 21.2555 22.1755 21.2555H21.6753ZM32.513 28.9222H24.0096C24.0096 28.4778 23.8984 28.0333 23.6761 27.5889L23.1759 26.7555H32.513V28.9222ZM24.6765 22.7555H25.3435C25.5658 22.7555 25.7603 22.6722 25.927 22.5055C26.0938 22.3389 26.1771 22.1722 26.1771 22.0055C26.1771 21.8389 26.0938 21.6722 25.927 21.5055C25.7603 21.3389 25.5658 21.2555 25.3435 21.2555H24.6765C24.4542 21.2555 24.2875 21.3389 24.1763 21.5055C24.0652 21.6722 24.0096 21.8389 24.0096 22.0055C24.0096 22.1722 24.0652 22.3389 24.1763 22.5055C24.2875 22.6722 24.4542 22.7555 24.6765 22.7555ZM28.3447 22.7555H29.0116C29.1228 22.7555 29.2617 22.6722 29.4284 22.5055C29.5952 22.3389 29.6785 22.1722 29.6785 22.0055C29.6785 21.8389 29.5952 21.6722 29.4284 21.5055C29.2617 21.3389 29.1228 21.2555 29.0116 21.2555H28.3447C28.1224 21.2555 27.9278 21.3389 27.7611 21.5055C27.5944 21.6722 27.511 21.8389 27.511 22.0055C27.511 22.1722 27.5944 22.3389 27.7611 22.5055C27.9278 22.6722 28.1224 22.7555 28.3447 22.7555ZM16.0064 7.25553C15.7841 7.25553 15.5896 7.31109 15.4228 7.4222C15.2561 7.53331 15.1727 7.69998 15.1727 7.9222V8.9222C15.1727 9.14442 15.2561 9.31109 15.4228 9.4222C15.5896 9.53331 15.7841 9.58887 16.0064 9.58887C16.2287 9.58887 16.3954 9.53331 16.5066 9.4222C16.6178 9.31109 16.6733 9.14442 16.6733 8.9222V7.9222C16.6733 7.69998 16.6178 7.53331 16.5066 7.4222C16.3954 7.31109 16.2287 7.25553 16.0064 7.25553ZM16.0064 11.2555C15.7841 11.2555 15.5896 11.3111 15.4228 11.4222C15.2561 11.5333 15.1727 11.7 15.1727 11.9222V12.9222C15.1727 13.0333 15.2561 13.1722 15.4228 13.3389C15.5896 13.5055 15.7841 13.5889 16.0064 13.5889C16.2287 13.5889 16.3954 13.5055 16.5066 13.3389C16.6178 13.1722 16.6733 13.0333 16.6733 12.9222V11.9222C16.6733 11.7 16.6178 11.5333 16.5066 11.4222C16.3954 11.3111 16.2287 11.2555 16.0064 11.2555ZM16.0064 15.0889C15.7841 15.0889 15.5896 15.1722 15.4228 15.3389C15.2561 15.5055 15.1727 15.7 15.1727 15.9222V16.9222C15.1727 17.0333 15.2561 17.1722 15.4228 17.3389C15.5896 17.5055 15.7841 17.5889 16.0064 17.5889C16.2287 17.5889 16.3954 17.5055 16.5066 17.3389C16.6178 17.1722 16.6733 17.0333 16.6733 16.9222V15.9222C16.6733 15.7 16.6178 15.5055 16.5066 15.3389C16.3954 15.1722 16.2287 15.0889 16.0064 15.0889Z" fill="white"/>
</svg>
