<?xml version="1.0" encoding="utf-8"?>
<!-- Generator: Adobe Illustrator 25.1.0, SVG Export Plug-In . SVG Version: 6.00 Build 0)  -->
<svg version="1.1" id="Layer_1" xmlns="http://www.w3.org/2000/svg" xmlns:xlink="http://www.w3.org/1999/xlink" x="0px" y="0px"
	 viewBox="0 0 24 24" style="enable-background:new 0 0 24 24;" xml:space="preserve">
<style type="text/css">
	.st0{fill:#FFFFFF;stroke:#FFFFFF;stroke-width:0.25;stroke-miterlimit:10;}
</style>
<g>
	<path class="st0" d="M6.4,10.4c0,0.7,0,1.4,0,2.2c0.1,2.7-0.1,5.4-0.6,8.1c-0.2,0.8-0.2,1.6-0.2,2.4c0,0.1,0,0.2,0,0.3
		c0,0.1-0.1,0.2-0.2,0.3c-0.1-0.1-0.2-0.2-0.2-0.3c0.1-0.9,0-1.8,0.2-2.7C6,17.9,6.2,15.2,6,12.4C6,11.7,6,11,6,10.3
		C6,10,6,9.9,6.3,10c1,0.1,2,0.1,3,0.2c0.5,0,0.9-0.1,1.2-0.5c1.3-1.3,2.6-2.5,3.9-3.8C15.2,5.2,15,4,14,3.7c-0.5-0.1-0.9,0-1.3,0.4
		c-1.1,1.1-2.2,2.1-3.3,3.2C9.1,7.5,8.9,7.6,8.6,7.6c-1.7-0.1-3.3-0.3-5-0.4c-1.5-0.1-2.8,1-2.8,2.6c0,2.8,0,5.6,0,8.4
		c0,1.7,0.2,3.3,0.3,5c0,0.2,0.1,0.5-0.1,0.5c-0.3,0-0.2-0.3-0.2-0.5c-0.4-4.5-0.3-9-0.3-13.5c0-1.6,1.4-2.9,3.1-2.8
		c1.7,0.1,3.3,0.2,5,0.4c0.3,0,0.5,0,0.8-0.3c1.1-1.1,2.1-2.1,3.2-3.1c0.9-0.9,2.4-0.5,2.8,0.7c0.2,0.6,0,1.1-0.4,1.6
		c-1.4,1.4-2.8,2.7-4.2,4.1c-0.3,0.3-0.8,0.4-1.2,0.4c-0.9-0.1-1.9-0.1-2.8-0.2C6.5,10.4,6.5,10.4,6.4,10.4z"/>
	<path class="st0" d="M23.6,21c0,0.9,0,1.5,0,2.2c0,0.2,0.1,0.4-0.2,0.4c-0.1,0-0.2-0.2-0.2-0.4c0-0.8,0-1.6,0-2.3
		c0.1-1.3-0.1-2.6-0.4-3.9c-0.2-1-0.3-2-0.4-3c-0.1-2.4-0.3-4.7-0.5-7.1c0-0.5-0.2-0.8-0.7-1.1c-2-1.1-4.1-2.1-6.1-3.2
		c-0.4-0.2-0.8-0.2-1.1,0c-0.1,0-0.2,0-0.3,0c0.1-0.1,0.1-0.2,0.2-0.3c0.5-0.2,1-0.2,1.4,0c2.1,1.1,4.1,2.1,6.2,3.2
		C22,5.9,22.3,6.3,22.3,7c0.2,2.7,0.3,5.4,0.5,8.1c0.1,0.9,0.3,1.7,0.5,2.6C23.6,18.9,23.6,20.1,23.6,21z"/>
	<path class="st0" d="M19.7,10.8c0,1.4-0.7,2.5-2,3.2c-0.4,0.2-0.9,0.4-1.3,0.6c-0.6,0.3-1.1,0.7-1.3,1.3c-0.7,1.6-1.4,3.3-2.1,4.9
		c-0.2,0.5-0.2,1,0.2,1.4c0.3,0.4,0.6,0.7,0.8,1.1c0.1,0.1,0,0.2,0,0.3c-0.1,0-0.3-0.1-0.3-0.1c-0.3-0.4-0.6-0.8-1-1.2
		c-0.3-0.5-0.4-1-0.2-1.5c0.7-1.7,1.5-3.5,2.3-5.2c0.3-0.6,0.8-1,1.4-1.3c0.5-0.2,0.9-0.4,1.4-0.6c1.2-0.6,1.8-1.5,1.8-2.9
		c0-0.8-0.1-1.7-0.2-2.5c0-0.2-0.1-0.3-0.2-0.3c-1.1-0.6-2.1-1.1-3.2-1.7c-0.1,0-0.2-0.1-0.2-0.1c0-0.1-0.1-0.2-0.1-0.2
		c0-0.1,0.1-0.1,0.2-0.1c0.1,0,0.1,0.1,0.2,0.1C17,6.4,18,7,19.1,7.6c0.3,0.1,0.4,0.3,0.4,0.6C19.6,9,19.6,9.9,19.7,10.8z"/>
	<path class="st0" d="M12.8,10.5c0-1.6,1.3-3,3-3c1.6,0,3,1.3,3,3c0,1.6-1.3,2.9-2.9,2.9C14.1,13.4,12.8,12.1,12.8,10.5z M13.2,10.5
		c0,1.4,1.2,2.6,2.6,2.6c1.4,0,2.6-1.2,2.6-2.6c0-1.4-1.2-2.6-2.6-2.6C14.3,7.9,13.2,9.1,13.2,10.5z"/>
	<path class="st0" d="M6.4,3.3c0,1.6-1.3,3-3,3C1.9,6.3,0.5,5,0.5,3.4c0-1.6,1.3-3,3-3C5.1,0.4,6.4,1.7,6.4,3.3z M6.1,3.3
		c0-1.4-1.2-2.6-2.6-2.6c-1.4,0-2.6,1.2-2.6,2.6c0,1.4,1.2,2.6,2.6,2.6C4.9,5.9,6.1,4.8,6.1,3.3z"/>
	<path class="st0" d="M14.2,15.5c0,1.1-1.1,1.9-2.2,1.5c-1.6-0.6-3.2-1.1-4.9-1.7c-0.2-0.1-0.5,0-0.4-0.3c0.1-0.3,0.3-0.1,0.5,0
		c1.6,0.5,3.2,1.1,4.7,1.6c0.4,0.2,0.9,0.2,1.3-0.1c0.4-0.3,0.6-0.7,0.6-1.2c-0.1-0.5-0.4-0.9-0.8-1c-1.2-0.4-2.5-0.9-3.7-1.3
		c-0.9-0.3-1.6-0.9-2.4-1.3c-0.1,0-0.1-0.2-0.1-0.3c0.1,0,0.2-0.1,0.3,0c0.3,0.2,0.6,0.3,0.9,0.5c0.6,0.5,1.3,0.7,2.1,1
		c1,0.3,2.1,0.7,3.1,1.1C13.8,14.2,14.2,14.7,14.2,15.5z"/>
	<path class="st0" d="M17,18.4c-0.3,0.9-0.7,1.7-1,2.6c0,0.1,0,0.2,0.1,0.3c0.5,0.6,1,1.2,1.5,1.9c0.1,0.1,0.1,0.2,0.1,0.2
		c0,0-0.1,0.1-0.1,0.1c-0.1,0-0.2-0.1-0.2-0.1c-0.4-0.5-0.7-1-1.2-1.4c-0.6-0.6-0.7-1.1-0.3-1.9c0.3-0.6,0.5-1.4,0.8-2.1
		c0-0.1,0.1-0.2,0.2-0.3c0.1,0.1,0.2,0.1,0.3,0.2c0.8,1.1,1.1,2.3,0.5,3.6c0,0.1-0.1,0.2-0.1,0.2c-0.1,0-0.2,0.1-0.2,0.1
		c0-0.1-0.1-0.2-0.1-0.2c0-0.1,0-0.1,0.1-0.2C17.9,20.5,17.7,19.5,17,18.4C17,18.5,17,18.5,17,18.4z"/>
</g>
</svg>
