<?xml version="1.0" encoding="utf-8"?>
<!-- Generator: Adobe Illustrator 25.1.0, SVG Export Plug-In . SVG Version: 6.00 Build 0)  -->
<svg version="1.1" id="Layer_1" xmlns="http://www.w3.org/2000/svg" xmlns:xlink="http://www.w3.org/1999/xlink" x="0px" y="0px"
	 viewBox="0 0 24 24" style="enable-background:new 0 0 24 24;" xml:space="preserve">
<style type="text/css">
	.st0{fill:#FFFFFF;}
</style>
<g>
	<path class="st0" d="M3.1,24c-0.3-0.3-0.3-0.4-0.1-0.7c0.4-0.6,0.8-1.1,1.3-1.7c0.1-0.1,0.2-0.2,0.4-0.3C5.8,20.9,6.5,20.1,7,19
		c0.2-0.6,0.5-1.3,0.8-1.9c0.1-0.2,0.1-0.4-0.1-0.6c-0.2-0.2-0.4-0.3-0.6-0.2c-0.1,0.1-0.3,0.2-0.4,0.3c-0.2,0.3-0.4,0.7-0.7,1.1
		c-0.2,0.3-0.4,0.4-0.8,0.5c-1,0-1.1-0.1-1.3-1.1c-0.1-0.8-0.3-1.5-0.4-2.3c0-0.3,0-0.6,0.2-0.8c0.4-0.5,0.8-0.9,1.2-1.4
		c0.1-0.1,0.1-0.2,0.1-0.4c0-0.3,0-0.5,0-0.9c-0.1,0-0.1,0.1-0.2,0.1c-1.1,0.9-2.2,1.9-3.3,2.8c-0.3,0.3-0.5,0.6-0.5,1.1
		c0,0.2,0,0.4,0,0.6c0,0.2-0.2,0.3-0.3,0.3c-0.2,0-0.3-0.1-0.3-0.3c0-0.7,0-1.5,0.6-2c0,0,0.1-0.1,0.1-0.2c0-0.3,0-0.6,0-0.9
		c0-0.1,0-0.2-0.1-0.3c-1.3-3,0.1-6.4,3.1-7.7c0.6-0.3,1.2-0.5,1.8-0.8c1.4-0.6,2.1-1.7,2.1-3.2C8.1,0.4,8,0.2,8.3,0
		c0.1,0,0.2,0,0.2,0c0.2,0.1,0.2,0.3,0.2,0.5c0,1.2-0.3,2.4-1.2,3.2C7.2,4,6.8,4.3,6.4,4.5C5.7,4.8,5,5.1,4.3,5.4
		c-2.5,1.2-3.7,4.1-2.5,6.7c0.1,0.3,0.1,0.6,0.2,0.9C1.9,13,2,13,2,12.9c1-0.8,1.9-1.7,2.9-2.5c0.2-0.1,0.3-0.3,0.2-0.5
		c0-0.1,0-0.1,0-0.2c0-0.2,0.1-0.3,0.3-0.3c0.2,0,0.3,0.1,0.3,0.3c0,0.1,0,0.2,0,0.3c0,1.6,0,3.1,0,4.7c0,0.5,0.1,0.9,0.2,1.4
		c0.1-0.1,0.1-0.1,0.1-0.2c0.4-0.5,1.1-0.7,1.6-0.4c0.6,0.3,0.8,1,0.6,1.6c-0.4,0.9-0.8,1.8-1.2,2.7c-0.2,0.4-0.5,0.7-0.8,1
		c-0.1,0.1-0.1,0.2-0.1,0.3c-0.1,0.7-0.1,1.5-0.1,2.2c0,0.3-0.2,0.4-0.4,0.4c-0.2,0-0.3-0.2-0.3-0.5c0-0.6,0.1-1.2,0.1-1.8
		c-0.3,0.2-0.7,0.3-0.9,0.6c-0.3,0.5-0.7,1-1.1,1.5c-0.1,0.1-0.2,0.2-0.3,0.3C3.3,24,3.2,24,3.1,24z M5.1,13.5
		C5.1,13.5,5.1,13.5,5.1,13.5c-0.3,0.3-0.6,0.6-0.8,0.9c0,0.1,0,0.2,0,0.2c0.1,0.8,0.2,1.5,0.4,2.3c0.1,0.4,0.1,0.4,0.5,0.4
		c0.3,0,0.5-0.3,0.3-0.5c-0.3-0.7-0.5-1.4-0.4-2.1C5.2,14.3,5.1,13.9,5.1,13.5z"/>
	<path class="st0" d="M24,20.4c-0.3,0.3-0.5,0.3-0.8-0.1c-0.4-0.6-0.5-1.2-0.5-1.8c0-1,0-2.1,0-3.1c0-0.5-0.2-0.9-0.6-1.2
		c-1.1-0.9-2.2-1.8-3.2-2.8c0,0-0.1-0.1-0.2-0.1c0,0.4,0,0.7,0,1.1c0,0.1,0.1,0.1,0.1,0.2c0.4,0.5,0.8,0.9,1.2,1.4
		c0.2,0.3,0.3,0.6,0.2,0.9c0,0.2-0.1,0.5-0.1,0.7c0,0.2-0.2,0.3-0.4,0.3c-0.2,0-0.3-0.2-0.3-0.4c0,0,0,0,0-0.1
		c0.2-0.5,0.1-1-0.4-1.4c-0.1-0.1-0.2-0.2-0.4-0.3c0,0.1,0,0.2,0,0.2c0,0.7,0,1.4-0.1,2.1c0,0.4-0.2,0.7-0.3,1
		c-0.1,0.2,0.1,0.5,0.3,0.5c0.5,0,0.5,0,0.5-0.4c0.1-0.3,0.2-0.4,0.4-0.4c0.2,0,0.3,0.2,0.3,0.5c0,0.1,0,0.2,0,0.2
		c-0.1,0.5-0.4,0.8-0.9,0.8c-0.1,0-0.2,0-0.4,0c-0.3,0-0.6-0.1-0.8-0.4c-0.2-0.4-0.4-0.7-0.7-1.1c-0.2-0.3-0.5-0.4-0.8-0.3
		c-0.3,0.1-0.4,0.5-0.3,0.8c0.3,0.7,0.6,1.5,1,2.2c0.4,0.9,1,1.5,1.9,1.9c0.3,0.1,0.6,0.3,0.8,0.6c0.3,0.5,0.7,1,1.1,1.5
		c0.2,0.3,0.2,0.4,0,0.7c-0.1,0-0.2,0-0.3,0c-0.4-0.5-0.8-1-1.2-1.6c-0.3-0.4-0.6-0.6-1.1-0.8c0,0.5,0.1,1.1,0.1,1.6
		c0,0.1,0,0.2,0,0.3c0,0.2-0.1,0.4-0.3,0.4c-0.2,0-0.4-0.1-0.4-0.4c0-0.7-0.1-1.5-0.1-2.2c0-0.1-0.1-0.3-0.2-0.4
		c-0.4-0.4-0.7-0.9-1-1.4c-0.3-0.7-0.6-1.4-0.9-2.1c-0.3-0.7-0.1-1.4,0.5-1.7c0.6-0.3,1.3-0.2,1.7,0.5c0,0,0,0,0.1,0.1
		c0.2-0.4,0.2-0.8,0.2-1.3c0-1.6,0-3.2,0-4.9c0-0.1,0-0.2,0-0.3c0-0.2,0.2-0.3,0.4-0.3c0.2,0,0.3,0.1,0.3,0.3
		c-0.1,0.4,0.2,0.6,0.4,0.8c0.9,0.8,1.8,1.5,2.7,2.3c0,0,0.1,0.1,0.1,0.1c0,0,0,0,0,0c-0.1-0.5,0.1-0.9,0.3-1.4
		c0.5-1.6,0.3-3-0.6-4.4c-0.1-0.1-0.1-0.2-0.2-0.3c-0.1-0.2,0-0.3,0.1-0.4c0.1-0.1,0.3-0.1,0.4,0c0,0,0.1,0.1,0.1,0.1
		c1.1,1.7,1.4,3.5,0.6,5.5c-0.2,0.5-0.1,1-0.1,1.5c0,0,0,0.1,0.1,0.1c0.4,0.4,0.6,0.9,0.6,1.5c0,1.1,0,2.2,0,3.4
		c0,0.6,0.2,1,0.5,1.5C24,20.2,24,20.3,24,20.4z"/>
	<path class="st0" d="M15.7,0c0.2,0.1,0.2,0.3,0.2,0.5c0,0.9,0.2,1.7,0.7,2.4c0.4,0.5,0.8,0.8,1.3,1c0.7,0.3,1.4,0.6,2.1,0.9
		c0.4,0.2,0.7,0.4,1.1,0.6c0.2,0.1,0.2,0.3,0.1,0.5c-0.1,0.1-0.3,0.2-0.5,0.1c-0.8-0.6-1.7-0.9-2.6-1.3c-0.7-0.3-1.3-0.6-1.8-1.1
		c-0.9-0.9-1.2-2.1-1.1-3.3c0-0.1,0.1-0.2,0.2-0.3C15.5,0,15.6,0,15.7,0z"/>
	<path class="st0" d="M0,20.1c0.3-0.4,0.6-0.9,0.5-1.5c0-0.4,0-0.9,0-1.3c0-0.3,0.1-0.4,0.4-0.4c0.2,0,0.3,0.2,0.3,0.4
		c0,0.6,0,1.2,0,1.8c0,0.3-0.2,0.5-0.3,0.8c0,0.1-0.1,0.3-0.2,0.4c-0.2,0.4-0.4,0.4-0.7,0.1C0,20.3,0,20.2,0,20.1z"/>
	<path class="st0" d="M12.1,0c0.2,0.1,0.3,0.2,0.2,0.5c0,0.2,0,0.5,0,0.7c0,0.2-0.1,0.4-0.3,0.4c-0.2,0-0.3-0.1-0.4-0.4
		c0-0.3,0-0.5,0-0.8c0-0.1,0.1-0.2,0.2-0.4C12,0,12.1,0,12.1,0z"/>
	<path class="st0" d="M13.6,16.5c0-0.8,0.3-1.5,0.9-2.1c0.2-0.2,0.4-0.2,0.6,0c0.1,0.2,0.1,0.4-0.1,0.6c-0.8,0.8-0.9,1.7-0.5,2.7
		c0.1,0.2,0.1,0.4-0.1,0.5c-0.2,0.1-0.4,0-0.5-0.2C13.7,17.5,13.6,17.1,13.6,16.5z"/>
	<path class="st0" d="M10.4,16.5c0,0.6-0.1,1.1-0.3,1.5c-0.1,0.2-0.3,0.3-0.5,0.2c-0.2-0.1-0.2-0.3-0.1-0.5c0.4-1,0.3-1.9-0.5-2.7
		c-0.2-0.2-0.2-0.4,0-0.6c0.2-0.1,0.3-0.1,0.5,0.1C10.1,15,10.4,15.8,10.4,16.5z"/>
	<path class="st0" d="M17,14.3c-0.3,0-0.6,0-0.9,0.1c-0.2,0-0.4-0.1-0.4-0.3c0-0.2,0.1-0.4,0.3-0.4c0.4,0,0.8,0,1.2,0
		c0.2,0,0.3,0.2,0.3,0.4C17.4,14.2,17.2,14.3,17,14.3z"/>
	<path class="st0" d="M7.4,13.6c0.2,0,0.4,0,0.6,0.1c0.2,0,0.3,0.2,0.3,0.4c0,0.2-0.2,0.3-0.4,0.3c-0.3,0-0.6,0-1,0
		c-0.2,0-0.4-0.1-0.4-0.3c0-0.2,0.1-0.4,0.3-0.4C7,13.6,7.2,13.6,7.4,13.6z"/>
	<path class="st0" d="M12.4,3.9c0,0.1,0,0.3,0,0.4c0,0.2-0.1,0.3-0.3,0.3c-0.2,0-0.3-0.1-0.4-0.3c0-0.3,0-0.7,0-1
		c0-0.2,0.2-0.3,0.3-0.3c0.2,0,0.3,0.1,0.3,0.3C12.4,3.6,12.4,3.8,12.4,3.9z"/>
	<path class="st0" d="M12.4,13.4c0,0.1,0,0.3,0,0.4c0,0.2-0.1,0.3-0.3,0.3c-0.2,0-0.4-0.1-0.4-0.3c0-0.3,0-0.6,0-1
		c0-0.2,0.2-0.3,0.4-0.3c0.2,0,0.3,0.1,0.3,0.3C12.4,13.1,12.4,13.2,12.4,13.4z"/>
	<path class="st0" d="M12.4,22.9c0,0.1,0,0.3,0,0.4c0,0.2-0.1,0.3-0.3,0.3c-0.2,0-0.3-0.1-0.4-0.3c0-0.3,0-0.7,0-1
		c0-0.2,0.2-0.3,0.3-0.3c0.2,0,0.3,0.1,0.3,0.3C12.4,22.6,12.4,22.7,12.4,22.9z"/>
	<path class="st0" d="M12.4,7.1c0,0.1,0,0.3,0,0.4c0,0.2-0.1,0.3-0.3,0.3c-0.2,0-0.4-0.1-0.4-0.3c0-0.3,0-0.6,0-1
		c0-0.2,0.2-0.3,0.4-0.3c0.2,0,0.3,0.1,0.3,0.3C12.4,6.8,12.4,6.9,12.4,7.1C12.4,7.1,12.4,7.1,12.4,7.1z"/>
	<path class="st0" d="M12.4,16.6c0,0.1,0,0.3,0,0.4c0,0.2-0.1,0.3-0.3,0.3c-0.2,0-0.4-0.1-0.4-0.3c0-0.3,0-0.6,0-1
		c0-0.2,0.2-0.3,0.4-0.3c0.2,0,0.3,0.1,0.3,0.3C12.4,16.3,12.4,16.4,12.4,16.6z"/>
	<path class="st0" d="M12.4,19.7c0,0.1,0,0.3,0,0.4c0,0.2-0.1,0.3-0.3,0.3c-0.2,0-0.4-0.1-0.4-0.3c0-0.3,0-0.6,0-1
		c0-0.2,0.2-0.3,0.4-0.3c0.2,0,0.3,0.1,0.3,0.3C12.4,19.4,12.4,19.5,12.4,19.7z"/>
	<path class="st0" d="M12.4,10.2c0,0.1,0,0.3,0,0.4c0,0.2-0.1,0.3-0.3,0.3c-0.2,0-0.3-0.1-0.4-0.3c0-0.3,0-0.6,0-0.9
		c0-0.2,0.2-0.3,0.4-0.3c0.2,0,0.3,0.1,0.3,0.3C12.4,9.9,12.4,10.1,12.4,10.2z"/>
</g>
</svg>
