<?xml version="1.0" encoding="utf-8"?>
<!-- Generator: Adobe Illustrator 25.1.0, SVG Export Plug-In . SVG Version: 6.00 Build 0)  -->
<svg version="1.1" id="Layer_1" xmlns="http://www.w3.org/2000/svg" xmlns:xlink="http://www.w3.org/1999/xlink" x="0px" y="0px"
	 viewBox="0 0 24 24" style="enable-background:new 0 0 24 24;" xml:space="preserve">
<style type="text/css">
	.st0{fill:#FFFFFF;}
</style>
<g>
	<path class="st0" d="M13.9,8.5c0.1,0,0.2,0,0.3,0c1.5,0,3,0,4.5,0c0.8,0,1.2,0.5,1.2,1.2c0,0.6,0,1.2,0,1.8c0.3,0,0.5,0,0.7,0
		c0.1-0.3,0.3-0.4,0.5-0.4c0.7,0,1.3,0,2,0c0.3,0,0.5,0.1,0.5,0.5c0,0.7,0,1.4,0,2c0,0.3-0.1,0.5-0.5,0.5c-0.7,0-1.3,0-2,0
		c-0.3,0-0.4-0.1-0.5-0.4c-0.2,0-0.5,0-0.7,0c0,1,0,2,0,3c0.2,0,0.5,0,0.7,0c0.1-0.3,0.3-0.4,0.6-0.4c0.7,0,1.3,0,2,0
		c0.3,0,0.5,0.1,0.5,0.5c0,0.7,0,1.4,0,2.1c0,0.3-0.1,0.5-0.5,0.5c-0.7,0-1.4,0-2,0c-0.3,0-0.4-0.1-0.5-0.4c-0.2,0-0.5,0-0.7,0
		c0,0.6,0,1.1,0,1.7c0,0.8-0.4,1.3-1.3,1.3c-4,0-7.9,0-11.9,0c-1.5,0-3-0.2-4.4-0.8c-0.4-0.2-0.9-0.4-1.3-0.7
		c-0.5-0.3-0.7-0.8-0.7-1.4c0-4.1,0-8.2,0-12.4c0-0.6,0.2-1,0.7-1.4c0.6-0.5,1.4-0.8,2.1-1c2-0.5,4-0.6,6-0.4
		c1.1,0.1,2.1,0.3,3.1,0.8c0.4,0.2,0.8,0.5,1.1,0.7c0.3,0.3,0.5,0.7,0.5,1.1C13.9,7.3,13.9,7.9,13.9,8.5z M5.5,19.6
		C5.5,19.6,5.5,19.6,5.5,19.6c0.3,0.1,0.6,0.1,0.8,0.1c0.2,0,0.3,0,0.4-0.2c2.2-2.2,4.4-4.4,6.6-6.6c0.1-0.1,0.1-0.1,0.2-0.2
		c0.2,0.2,0.4,0.3,0.6,0.5c-2.2,2.2-4.3,4.3-6.5,6.5c0.3,0,0.6,0,0.9,0c0.2,0,0.3,0,0.4-0.2c1.7-1.7,3.4-3.4,5.2-5.2
		c0.1-0.1,0.1-0.1,0.2-0.2c0.2,0.2,0.4,0.3,0.6,0.5c-1.7,1.7-3.3,3.3-5,5c0.3,0,0.6,0,0.9,0c0.2,0,0.3,0,0.4-0.2
		c1.6-1.6,3.2-3.2,4.8-4.8c0.1-0.1,0.1-0.1,0.1-0.2c0.2,0.2,0.4,0.4,0.6,0.6c-0.4,0.4-0.8,0.8-1.3,1.2c0.1,0,0.3,0,0.4,0
		c0.6,0,1.2,0,1.8,0c0.3,0,0.5,0,0.6,0.4c0.3,0,0.5,0,0.7,0c0-0.6,0-1.1,0-1.6c0,0,0,0-0.1-0.1c-0.3,0.3-0.5,0.5-0.8,0.8
		c-0.2-0.2-0.3-0.3-0.5-0.5c0.4-0.4,0.9-0.8,1.3-1.3c0.1-0.1,0.1-0.2,0.2-0.3c-0.3,0-0.5,0-0.8,0c-0.1,0.3-0.3,0.4-0.6,0.4
		c-0.7,0-1.3,0-2,0c-0.3,0-0.4-0.1-0.4-0.4c0-0.5,0-1,0-1.4c0-0.1,0-0.1,0-0.2c0,0,0,0-0.1,0c-0.1,0.2-0.3,0.3-0.3,0.4
		c-0.2-0.2-0.4-0.3-0.6-0.6c0.4-0.4,0.8-0.8,1.2-1.2c-0.3,0-0.6,0-0.9,0c-0.2,0-0.3,0-0.4,0.2c-2.8,2.8-5.7,5.7-8.5,8.5
		C5.6,19.5,5.6,19.5,5.5,19.6z M5.7,16.1c1.8-1.8,3.5-3.5,5.3-5.3c-0.3,0-0.7,0-1,0c-0.1,0-0.2,0.1-0.3,0.1c-0.3,0.3-0.7,0.7-1,1
		c-0.2,0.2-0.4,0.4-0.6,0.6c-0.2-0.2-0.4-0.3-0.6-0.6c0.4-0.4,0.8-0.8,1.2-1.2c-0.3,0-0.6,0-0.9,0c-0.2,0-0.3,0-0.4,0.2
		c-2,2-4.1,4.1-6.1,6.1c-0.3,0.3-0.3,0.6-0.2,1c0,0.1,0.1,0.2,0.2,0.3c1.9-1.9,3.7-3.7,5.5-5.5C7,13,7.2,13.1,7.4,13.3
		c-1.8,1.8-3.6,3.6-5.5,5.5c0.2,0.1,0.4,0.2,0.6,0.3c0.1,0.1,0.2,0,0.3-0.1c0.6-0.6,1.3-1.3,1.9-1.9C4.9,17,4.9,16.9,5,16.9
		c0.2,0.2,0.4,0.3,0.6,0.5c-0.7,0.6-1.3,1.3-2,1.9c0.3,0.1,0.5,0.1,0.8,0.2c0.2,0,0.3,0,0.4-0.1c2.8-2.8,5.6-5.6,8.4-8.5
		c0.1-0.1,0.1-0.1,0.2-0.2c-0.2,0-0.3,0-0.4,0c-0.6-0.1-1,0.1-1.4,0.6c-1.7,1.7-3.4,3.4-5.1,5.1c-0.1,0.1-0.1,0.1-0.2,0.2
		C6.1,16.5,5.9,16.3,5.7,16.1z M7.1,8.5c1.4,0,2.8-0.1,4.2-0.6c0.5-0.2,0.9-0.4,1.4-0.6c0.7-0.4,0.7-0.9,0-1.3
		c-0.4-0.2-0.8-0.4-1.2-0.6C10.3,5,9.2,4.8,8.1,4.8c-1.6-0.1-3.2,0-4.8,0.4C2.7,5.4,2.1,5.6,1.6,6C1,6.4,1,6.8,1.6,7.3
		c0,0,0.1,0.1,0.1,0.1c0.4,0.2,0.7,0.4,1.1,0.5C4.2,8.4,5.7,8.5,7.1,8.5z M1.1,19.2c-0.1,0.2,0,0.5,0.3,0.6c0.4,0.3,0.8,0.5,1.2,0.7
		c1.3,0.5,2.7,0.7,4.1,0.7c4,0,8,0,12,0c0,0,0.1,0,0.1,0c0.2,0,0.3-0.1,0.3-0.3c0-0.1,0-0.3,0-0.4c-0.1,0-0.2,0-0.3,0
		c-4,0-8,0-11.9,0c-1.4,0-2.9-0.2-4.3-0.6C2.1,19.7,1.6,19.4,1.1,19.2z M19.1,10c0.1-0.5,0-0.8-0.6-0.8c-3.9,0-7.7,0-11.6,0
		c-2,0-4-0.3-5.7-1.3c-0.1,0.3,0,0.5,0.2,0.7c0.3,0.2,0.7,0.5,1.1,0.6C3.8,9.8,5.2,10,6.6,10c4.1,0,8.2,0,12.4,0
		C19,10,19.1,10,19.1,10z M15.4,16.6c-1,1-2.1,2.1-3.1,3.1c0.3,0,0.5,0,0.8,0c0.2,0,0.3,0,0.4-0.2c0.3-0.3,0.6-0.6,0.8-0.8
		c0.2,0.2,0.4,0.3,0.6,0.6c-0.2,0.1-0.3,0.3-0.5,0.4c1.6,0,3.2,0,4.7,0c0-0.2,0-0.5,0-0.7c-0.2,0-0.5,0-0.7,0c0,0.2-0.2,0.4-0.4,0.4
		c-0.7,0-1.5,0-2.2,0c-0.2,0-0.4-0.1-0.4-0.3C15.4,18.2,15.4,17.4,15.4,16.6z M6.6,10.7c-0.3,0-0.6,0-0.9-0.1c-0.1,0-0.2,0-0.3,0.1
		c-1.4,1.4-2.8,2.7-4.1,4.1c0,0-0.1,0.1-0.1,0.1c0,0.4,0,0.7,0,1.1C2.9,14.4,4.7,12.6,6.6,10.7z M1.1,13.9c1.1-1.1,2.2-2.2,3.3-3.3
		c-0.2,0-0.5-0.1-0.7-0.1c-0.1,0-0.2,0-0.3,0.1c-0.7,0.7-1.5,1.5-2.2,2.2c-0.1,0.1-0.1,0.1-0.1,0.2C1.1,13.2,1.1,13.6,1.1,13.9z
		 M1.1,11.6c0.5-0.5,1-1,1.5-1.5c-0.5-0.2-1-0.5-1.5-0.7C1.1,10.2,1.1,10.9,1.1,11.6z M16.1,13.4c0.5,0,1,0,1.5,0c0-0.5,0-1,0-1.5
		c-0.5,0-1,0-1.5,0c0,0.1,0,0.2,0,0.4c0.2,0,0.5,0,0.7,0c0,0.3,0,0.5,0,0.8c-0.3,0-0.5,0-0.7,0C16.1,13.1,16.1,13.2,16.1,13.4z
		 M22.9,13c-0.3,0-0.5,0-0.7,0c0-0.3,0-0.5,0-0.8c0.3,0,0.5,0,0.7,0c0-0.1,0-0.2,0-0.3c-0.5,0-1,0-1.5,0c0,0.5,0,1,0,1.5
		c0.5,0,1,0,1.5,0C22.9,13.2,22.9,13.1,22.9,13z M18.4,13c0.8,0,1.5,0,2.2,0c0-0.3,0-0.5,0-0.7c-0.7,0-1.5,0-2.2,0
		C18.4,12.5,18.4,12.7,18.4,13z M17.6,18.6c0-0.5,0-1,0-1.5c-0.5,0-1,0-1.5,0c0,0.1,0,0.2,0,0.4c0.2,0,0.5,0,0.7,0
		c0,0.3,0,0.5,0,0.8c-0.3,0-0.5,0-0.7,0c0,0.1,0,0.2,0,0.4C16.6,18.6,17.1,18.6,17.6,18.6z M22.1,18.3c0-0.3,0-0.5,0-0.8
		c0.3,0,0.5,0,0.7,0c0-0.1,0-0.2,0-0.4c-0.5,0-1,0-1.5,0c0,0.5,0,1,0,1.5c0.5,0,1,0,1.5,0c0-0.1,0-0.2,0-0.4
		C22.6,18.3,22.4,18.3,22.1,18.3z M20.6,18.2c0-0.3,0-0.5,0-0.7c-0.7,0-1.5,0-2.2,0c0,0.3,0,0.5,0,0.7
		C19.1,18.2,19.9,18.2,20.6,18.2z M17.8,10.7c-0.3,0-0.6,0-0.9,0c-0.3,0-0.4,0.2-0.6,0.4c0.3,0,0.6,0,0.8,0
		C17.4,11.2,17.6,11,17.8,10.7z M19.1,10.8c-0.3,0-0.8,0.5-0.7,0.7c0.2,0,0.5,0,0.7,0C19.1,11.2,19.1,11,19.1,10.8z M13.1,7.9
		c-0.4,0.2-0.7,0.4-1.1,0.6c0.4,0,0.7,0,1.1,0C13.1,8.3,13.1,8.1,13.1,7.9z"/>
	<path class="st0" d="M7.1,5.5c1.2,0,2.4,0,3.5,0.3C11,5.9,11.3,6,11.6,6.1c0.5,0.3,0.5,0.8,0,1c-0.4,0.2-0.9,0.4-1.4,0.4
		c-2.1,0.3-4.3,0.3-6.4,0C3.5,7.5,3.2,7.4,3,7.3c-0.1,0-0.3-0.1-0.4-0.2c-0.4-0.3-0.4-0.7,0-0.9C2.9,6,3.4,5.8,3.8,5.7
		C4.9,5.6,6,5.5,7.1,5.5C7.1,5.5,7.1,5.5,7.1,5.5z M10.9,6.6c-1.6-0.6-6.5-0.5-7.5,0C5.9,7.1,8.4,7.1,10.9,6.6z"/>
</g>
</svg>
