<svg width="51" height="51" viewBox="0 0 51 51" fill="none" xmlns="http://www.w3.org/2000/svg">
<path d="M15.6729 8.25521C16.451 7.47743 17.0623 6.56076 17.507 5.50521C17.9516 4.44965 18.1739 3.36632 18.1739 2.25521V1.08854C18.1739 0.977431 18.1183 0.838542 18.0072 0.671875C17.896 0.505208 17.7293 0.421875 17.507 0.421875C17.2847 0.421875 17.1179 0.505208 17.0068 0.671875C16.8956 0.838542 16.84 0.977431 16.84 1.08854V2.25521C16.84 4.1441 16.1175 5.81076 14.6725 7.25521C14.0056 7.81076 13.3386 8.25521 12.6717 8.58854L8.50336 10.2552C6.94719 10.9219 5.61332 11.8663 4.50176 13.0885C3.39021 14.3108 2.52875 15.6997 1.9174 17.2552C1.30604 18.8108 1.02815 20.3941 1.08373 22.0052C1.13931 23.6163 1.55614 25.1441 2.33423 26.5885V37.7552C2.33423 37.9774 2.38981 38.1719 2.50096 38.3385C2.61212 38.5052 2.77885 38.5885 3.00116 38.5885C3.22347 38.5885 3.418 38.5052 3.58473 38.3385C3.75146 38.1719 3.83483 37.9774 3.83483 37.7552V26.4219L3.6681 26.0885C2.33423 23.4219 2.19528 20.6441 3.25126 17.7552C4.30724 14.8663 6.28025 12.8108 9.1703 11.5885L13.1719 9.92188C14.0611 9.47743 14.8948 8.92187 15.6729 8.25521ZM48.1859 17.5885C48.1859 17.3663 48.0747 17.1997 47.8524 17.0885C47.6301 16.9774 47.4356 16.9774 47.2689 17.0885C47.1021 17.1997 46.9632 17.3385 46.852 17.5052C46.7409 17.6719 46.7409 17.8663 46.852 18.0885C47.7413 20.8663 47.5745 23.533 46.3518 26.0885L46.1851 26.4219V37.7552C46.1851 37.9774 46.2685 38.1719 46.4352 38.3385C46.6019 38.5052 46.7965 38.5885 47.0188 38.5885C47.2411 38.5885 47.4078 38.5052 47.519 38.3385C47.6301 38.1719 47.6857 37.9774 47.6857 37.7552V26.5885C49.1307 23.6997 49.2975 20.6997 48.1859 17.5885ZM46.6853 14.5885C45.3514 12.6997 43.6285 11.2552 41.5166 10.2552L37.515 8.58854C36.7369 8.25521 36.0144 7.81076 35.3474 7.25521C33.9024 5.81076 33.1799 4.1441 33.1799 2.25521V1.08854C33.1799 0.977431 33.1243 0.838542 33.0132 0.671875C32.902 0.505208 32.7353 0.421875 32.513 0.421875C32.2907 0.421875 32.1239 0.505208 32.0128 0.671875C31.9016 0.838542 31.846 0.977431 31.846 1.08854V2.25521C31.846 3.36632 32.0683 4.44965 32.513 5.50521C32.9576 6.56076 33.5689 7.44965 34.347 8.17187C35.1251 8.8941 35.9588 9.47743 36.848 9.92188L40.8496 11.5885C42.7393 12.4774 44.2955 13.7552 45.5182 15.4219C45.6293 15.6441 45.796 15.7552 46.0184 15.7552C46.2407 15.7552 46.4352 15.6997 46.6019 15.5885C46.7687 15.4774 46.852 15.3108 46.852 15.0885C46.852 14.8663 46.7964 14.6997 46.6853 14.5885ZM40.1827 35.7552L39.8492 35.0885C39.5158 34.533 39.349 33.8663 39.349 33.0885V21.0885C39.349 20.8663 39.2657 20.6719 39.0989 20.5052C38.9322 20.3385 38.7655 20.2552 38.5987 20.2552C38.432 20.2552 38.2653 20.3385 38.0985 20.5052C37.9318 20.6719 37.8484 20.8663 37.8484 21.0885V28.0885H12.1715V21.0885C12.1715 20.8663 12.0881 20.6719 11.9214 20.5052C11.7547 20.3385 11.5879 20.2552 11.4212 20.2552C11.2545 20.2552 11.0877 20.3385 10.921 20.5052C10.7543 20.6719 10.6709 20.8663 10.6709 21.0885V33.0885C10.6709 33.8663 10.5042 34.533 10.1707 35.0885L9.83723 35.7552C9.72607 35.9774 9.69829 36.1719 9.75386 36.3385C9.80944 36.5052 9.89281 36.6441 10.004 36.7552L10.3374 36.9219C10.6709 36.9219 10.8932 36.8108 11.0044 36.5885L11.5046 35.5885L12.3382 36.9219L11.5046 49.5885C11.5046 49.8108 11.5601 50.0052 11.6713 50.1719C11.7825 50.3385 11.9492 50.4219 12.1715 50.4219C12.3938 50.4219 12.5883 50.3663 12.7551 50.2552C12.9218 50.1441 13.0052 49.9774 13.0052 49.7552L13.1719 47.0885H29.345C29.5673 47.0885 29.7341 47.033 29.8452 46.9219C29.9564 46.8108 30.012 46.6441 30.012 46.4219C30.012 46.1996 29.9564 46.0052 29.8452 45.8385C29.7341 45.6719 29.5673 45.5885 29.345 45.5885H13.1719L13.3386 43.4219H17.8404C19.5078 43.4219 20.8972 42.8108 22.0088 41.5885H28.0112C29.1227 42.8108 30.5122 43.4219 32.1795 43.4219H36.6813L36.848 45.5885H32.513C32.2907 45.5885 32.0961 45.6719 31.9294 45.8385C31.7627 46.0052 31.6793 46.1996 31.6793 46.4219C31.6793 46.6441 31.7627 46.8108 31.9294 46.9219C32.0961 47.033 32.2907 47.0885 32.513 47.0885H36.848L37.0148 49.7552C37.0148 49.9774 37.0981 50.1441 37.2649 50.2552C37.4316 50.3663 37.6261 50.4219 37.8484 50.4219C38.0707 50.4219 38.2375 50.3385 38.3486 50.1719C38.4598 50.0052 38.5154 49.8108 38.5154 49.5885L37.6817 36.9219L38.5154 35.5885L39.0156 36.5885C39.1267 36.8108 39.349 36.9219 39.6825 36.9219L40.016 36.7552C40.1271 36.6441 40.2105 36.5052 40.2661 36.3385C40.3216 36.1719 40.2939 35.9774 40.1827 35.7552ZM17.8404 41.9219H13.5054V40.9219H13.8388C14.0611 40.9219 14.2557 40.8385 14.4224 40.6719C14.5891 40.5052 14.6725 40.3385 14.6725 40.1719C14.6725 40.0052 14.5891 39.8385 14.4224 39.6719C14.2557 39.5052 14.0611 39.4219 13.8388 39.4219H13.6721L13.8388 37.0885C13.8388 36.7552 13.7277 36.4774 13.5054 36.2552L13.1719 35.5885H13.8388C14.0611 35.5885 14.2557 35.5052 14.4224 35.3385C14.5891 35.1719 14.6725 34.9774 14.6725 34.7552C14.6725 34.533 14.5891 34.3663 14.4224 34.2552C14.2557 34.1441 14.0611 34.0885 13.8388 34.0885H12.505L12.3382 33.2552H13.6721C13.8944 33.2552 14.0611 33.1997 14.1723 33.0885C14.2835 32.9774 14.339 32.8108 14.339 32.5885C14.339 32.3663 14.2835 32.1719 14.1723 32.0052C14.0611 31.8385 13.8944 31.7552 13.6721 31.7552H12.1715V29.5885H37.8484V31.7552H32.1795C31.2903 31.7552 30.4566 31.9774 29.6785 32.4219C28.9004 32.8663 28.2335 33.4219 27.6777 34.0885H22.3422C21.7865 33.4219 21.1195 32.8663 20.3414 32.4219C19.5633 31.9774 18.7297 31.7552 17.8404 31.7552H16.84C16.6177 31.7552 16.4232 31.8385 16.2565 32.0052C16.0897 32.1719 16.0064 32.3663 16.0064 32.5885C16.0064 32.8108 16.0897 32.9774 16.2565 33.0885C16.4232 33.1997 16.6177 33.2552 16.84 33.2552H17.8404C18.7297 33.2552 19.5633 33.533 20.3414 34.0885C20.008 34.1996 19.8412 34.3941 19.8412 34.6719C19.8412 34.9496 19.8968 35.1719 20.008 35.3385C20.1191 35.5052 20.2859 35.5885 20.5082 35.5885H21.5086C21.842 36.033 22.0088 36.533 22.0088 37.0885H20.5082C20.2859 37.0885 20.1191 37.1441 20.008 37.2552C19.8968 37.3663 19.8412 37.533 19.8412 37.7552C19.8412 37.9774 19.8968 38.1719 20.008 38.3385C20.1191 38.5052 20.2859 38.5885 20.5082 38.5885H22.0088C21.8976 39.1441 21.6753 39.6441 21.3418 40.0885H20.5082C20.2859 40.0885 20.1191 40.1441 20.008 40.2552C19.8968 40.3663 19.8412 40.533 19.8412 40.7552C19.8412 40.9774 19.8968 41.1441 20.008 41.2552C19.341 41.6996 18.6185 41.9219 17.8404 41.9219ZM26.5106 37.0885H23.5094C23.5094 36.533 23.3982 36.033 23.1759 35.5885H26.844C26.6217 36.033 26.5106 36.533 26.5106 37.0885ZM27.0108 40.0885H23.0092C23.2315 39.533 23.3982 39.033 23.5094 38.5885H26.5106C26.6217 39.033 26.7885 39.533 27.0108 40.0885ZM36.5146 41.9219H32.1795C31.4014 41.9219 30.6789 41.6996 30.012 41.2552C30.012 41.1441 30.012 40.9774 30.012 40.7552C30.012 40.533 29.9564 40.3663 29.8452 40.2552C29.7341 40.1441 29.5673 40.0885 29.345 40.0885H28.6781C28.3446 39.6441 28.1223 39.1441 28.0112 38.5885H29.345C29.5673 38.5885 29.7341 38.5052 29.8452 38.3385C29.9564 38.1719 30.012 37.9774 30.012 37.7552C30.012 37.533 29.9564 37.3663 29.8452 37.2552C29.7341 37.1441 29.5673 37.0885 29.345 37.0885H28.0112C28.0112 36.533 28.1779 36.033 28.5114 35.5885H29.345C29.5673 35.5885 29.7341 35.5052 29.8452 35.3385C29.9564 35.1719 30.012 34.9774 30.012 34.7552C30.012 34.533 29.9008 34.3108 29.6785 34.0885C30.4566 33.533 31.2903 33.2552 32.1795 33.2552H37.6817L37.515 34.0885H36.1811C35.9588 34.0885 35.7643 34.1441 35.5975 34.2552C35.4308 34.3663 35.3474 34.533 35.3474 34.7552C35.3474 34.9774 35.4308 35.1719 35.5975 35.3385C35.7643 35.5052 35.9588 35.5885 36.1811 35.5885H36.848L36.5146 36.2552C36.2923 36.4774 36.1811 36.7552 36.1811 37.0885L36.3478 39.4219H36.1811C35.9588 39.4219 35.7643 39.5052 35.5975 39.6719C35.4308 39.8385 35.3474 40.0052 35.3474 40.1719C35.3474 40.3385 35.4308 40.5052 35.5975 40.6719C35.7643 40.8385 35.9588 40.9219 36.1811 40.9219H36.5146V41.9219ZM17.1735 34.0885H16.6733C16.451 34.0885 16.2843 34.1441 16.1731 34.2552C16.0619 34.3663 16.0064 34.533 16.0064 34.7552C16.0064 34.9774 16.0619 35.1719 16.1731 35.3385C16.2843 35.5052 16.451 35.5885 16.6733 35.5885H17.1735C17.3958 35.5885 17.5903 35.5052 17.7571 35.3385C17.9238 35.1719 18.0072 34.9774 18.0072 34.7552C18.0072 34.533 17.9238 34.3663 17.7571 34.2552C17.5903 34.1441 17.3958 34.0885 17.1735 34.0885ZM17.1735 39.4219H16.6733C16.451 39.4219 16.2843 39.5052 16.1731 39.6719C16.0619 39.8385 16.0064 40.0052 16.0064 40.1719C16.0064 40.3385 16.0619 40.5052 16.1731 40.6719C16.2843 40.8385 16.451 40.9219 16.6733 40.9219H17.1735C17.3958 40.9219 17.5903 40.8385 17.7571 40.6719C17.9238 40.5052 18.0072 40.3385 18.0072 40.1719C18.0072 40.0052 17.9238 39.8385 17.7571 39.6719C17.5903 39.5052 17.3958 39.4219 17.1735 39.4219ZM33.3466 34.0885H32.8464C32.6241 34.0885 32.4296 34.1441 32.2629 34.2552C32.0961 34.3663 32.0128 34.533 32.0128 34.7552C32.0128 34.9774 32.0961 35.1719 32.2629 35.3385C32.4296 35.5052 32.6241 35.5885 32.8464 35.5885H33.3466C33.5689 35.5885 33.7357 35.5052 33.8468 35.3385C33.958 35.1719 34.0136 34.9774 34.0136 34.7552C34.0136 34.533 33.958 34.3663 33.8468 34.2552C33.7357 34.1441 33.5689 34.0885 33.3466 34.0885ZM33.3466 39.4219H32.8464C32.6241 39.4219 32.4296 39.5052 32.2629 39.6719C32.0961 39.8385 32.0128 40.0052 32.0128 40.1719C32.0128 40.3385 32.0961 40.5052 32.2629 40.6719C32.4296 40.8385 32.6241 40.9219 32.8464 40.9219H33.3466C33.5689 40.9219 33.7357 40.8385 33.8468 40.6719C33.958 40.5052 34.0136 40.3385 34.0136 40.1719C34.0136 40.0052 33.958 39.8385 33.8468 39.6719C33.7357 39.5052 33.5689 39.4219 33.3466 39.4219Z" fill="white"/>
</svg>
