<?xml version="1.0" encoding="utf-8"?>
<!-- Generator: Adobe Illustrator 25.1.0, SVG Export Plug-In . SVG Version: 6.00 Build 0)  -->
<svg version="1.1" id="Layer_1" xmlns="http://www.w3.org/2000/svg" xmlns:xlink="http://www.w3.org/1999/xlink" x="0px" y="0px"
	 viewBox="0 0 24 24" style="enable-background:new 0 0 24 24;" xml:space="preserve">
<style type="text/css">
	.st0{fill:#5BB286;}
</style>
<g>
	<path class="st0" d="M11.3,0c0.5,0,0.9,0,1.4,0c0.1,0,0.1,0,0.2,0c1.9,0.1,3.6,0.7,5.2,1.7c3.1,1.9,5,4.7,5.7,8.2
		c0.1,0.4,0.1,0.9,0.2,1.4c0,0.5,0,0.9,0,1.4c0,0.1,0,0.1,0,0.2c-0.2,2.1-0.8,4-2,5.7c-0.3,0.5-0.7,0.9-1,1.4
		c-0.9-3.3-2.9-5.5-6-6.7c3.4-2.2,3.1-6.5,0.9-8.7c-2.2-2.2-5.8-2.2-7.9,0c-1.1,1.1-1.6,2.5-1.6,4c0.1,2,1,3.5,2.6,4.6
		c-3.1,1.2-5.1,3.4-6,6.6c-1.5-1.7-2.4-3.7-2.8-5.9c-0.1-0.5-0.1-0.9-0.2-1.4c0-0.5,0-0.9,0-1.4c0-0.2,0-0.3,0.1-0.5
		c0.3-2.6,1.3-4.9,3-6.8c1.8-2.1,4.1-3.3,6.9-3.8C10.4,0.1,10.8,0.1,11.3,0z"/>
	<path class="st0" d="M11.3,24c-0.5-0.1-0.9-0.1-1.4-0.2c-2.1-0.4-3.9-1.2-5.5-2.6c0,0-0.1-0.1-0.1-0.2c0.4-2.8,1.9-4.9,4.5-6.1
		c2.6-1.2,5.1-1,7.5,0.6c2,1.3,3.1,3.2,3.4,5.5c0,0.1,0,0.2-0.1,0.2c-2,1.6-4.2,2.5-6.7,2.7c-0.1,0-0.1,0-0.2,0
		C12.2,24,11.8,24,11.3,24z"/>
	<path class="st0" d="M12,4.4c2.3,0,4.2,1.9,4.2,4.2c0,2.3-1.9,4.2-4.2,4.2c-2.3,0-4.2-1.9-4.2-4.2C7.8,6.3,9.7,4.4,12,4.4z"/>
</g>
</svg>
