<?xml version="1.0" standalone="no"?>
<!DOCTYPE svg PUBLIC "-//W3C//DTD SVG 20010904//EN"
 "http://www.w3.org/TR/2001/REC-SVG-20010904/DTD/svg10.dtd">
<svg version="1.0" xmlns="http://www.w3.org/2000/svg"
 width="260.000000pt" height="260.000000pt" viewBox="0 0 260.000000 260.000000"
 preserveAspectRatio="xMidYMid meet">
<metadata>
Created by potrace 1.14, written by Peter Selinger 2001-2017
</metadata>
<g transform="translate(0.000000,260.000000) scale(0.100000,-0.100000)"
fill="#000000" stroke="none">
<path d="M1475 2482 c-10 -2 -30 -11 -43 -20 -17 -11 -51 -15 -120 -16 l-97
-1 -3 -127 -3 -128 291 0 290 0 0 130 0 129 -96 -2 c-70 -2 -101 1 -116 11
-25 18 -76 29 -103 24z m78 -24 c15 -11 8 -13 -43 -11 -77 1 -78 2 -60 13 21
14 83 12 103 -2z m-23 -85 c0 -19 6 -23 30 -23 29 0 33 -4 33 -35 0 -31 -4
-34 -30 -32 -22 2 -29 -3 -31 -20 -3 -18 -10 -23 -32 -23 -22 0 -29 5 -32 23
-2 15 -10 22 -25 23 -13 1 -27 2 -31 3 -4 0 -7 13 -7 29 1 23 7 27 33 30 26 3
32 8 32 26 0 20 5 23 30 22 24 -1 30 -5 30 -23z"/>
<path d="M1202 2174 c2 -5 27 -56 55 -114 63 -128 83 -188 90 -260 11 -113
-41 -182 -255 -340 -56 -41 -102 -80 -102 -87 0 -6 -4 -13 -9 -15 -8 -3 -115
-97 -222 -196 -76 -70 -211 -176 -316 -248 -28 -20 -72 -62 -97 -94 -25 -32
-75 -84 -110 -115 -70 -61 -100 -100 -91 -115 8 -13 41 4 75 38 36 35 160 118
251 166 61 33 85 52 111 91 35 52 96 100 140 110 32 7 79 53 132 126 46 64
123 129 152 129 15 0 26 -10 35 -32 17 -44 32 -54 109 -78 36 -11 70 -23 76
-27 22 -16 44 -58 44 -84 0 -39 -64 -130 -161 -228 -28 -29 -59 -79 -59 -95 0
-22 17 -13 128 71 114 86 150 105 173 92 10 -5 21 -20 23 -32 3 -12 8 -42 13
-67 6 -32 15 -48 32 -57 28 -14 61 -1 61 23 0 21 35 88 56 105 9 8 32 14 50
14 63 1 79 18 146 148 16 31 33 57 38 57 15 0 37 -28 121 -150 84 -124 87
-126 190 -155 73 -20 93 -35 85 -63 -4 -12 -12 -22 -17 -22 -5 0 -9 -9 -9 -20
0 -21 33 -28 58 -11 16 10 110 -9 167 -34 37 -16 95 -28 95 -20 0 4 -183 155
-241 199 -25 18 -58 30 -100 37 -60 9 -67 13 -119 68 -77 81 -173 190 -183
207 -4 7 -17 19 -28 24 -17 10 -26 5 -65 -34 -25 -25 -53 -46 -62 -46 -9 0
-82 68 -162 150 -91 94 -152 150 -164 150 -11 0 -55 -23 -99 -52 -93 -61 -103
-60 -170 22 -24 30 -50 54 -56 53 -6 -2 -11 2 -11 7 0 6 5 10 11 10 5 0 92 40
192 90 192 95 233 108 278 90 46 -19 51 -56 19 -126 -16 -32 -27 -60 -25 -62
8 -9 67 32 98 68 53 63 67 122 72 311 6 223 27 296 114 393 l26 30 -30 -18
c-86 -53 -186 -161 -200 -218 -5 -20 -11 -23 -40 -20 -19 2 -48 -3 -64 -11
-24 -12 -31 -13 -31 -3 0 34 -47 113 -102 172 -57 60 -126 119 -116 98z"/>
<path d="M1441 2074 c-24 -30 -26 -46 -9 -77 17 -32 39 -45 67 -40 35 6 41 11
56 47 32 75 -64 133 -114 70z"/>
<path d="M1134 1979 c-135 -27 -256 -79 -359 -153 l-50 -36 293 0 c227 0 292
3 292 13 0 47 -56 194 -74 194 -7 0 -53 -8 -102 -18z"/>
<path d="M1689 1878 c0 -18 -2 -45 -4 -60 l-4 -28 105 0 c57 0 104 2 104 4 0
7 -154 103 -177 110 -21 7 -23 4 -24 -26z"/>
<path d="M703 1763 c-32 -16 -89 -79 -166 -180 -8 -10 57 -13 315 -13 l325 0
50 48 c48 47 94 134 79 150 -13 12 -578 8 -603 -5z"/>
<path d="M1704 1772 c-18 -3 -20 -11 -22 -70 -1 -37 -4 -82 -6 -99 l-5 -33
209 0 209 0 -19 33 c-10 17 -48 63 -84 101 l-64 69 -99 1 c-54 1 -107 0 -119
-2z"/>
<path d="M520 1550 c-10 -6 -75 -142 -85 -177 l-6 -23 239 0 239 0 23 25 c14
14 66 58 117 98 51 39 93 74 93 77 0 7 -609 7 -620 0z"/>
<path d="M1660 1515 c-16 -52 -42 -104 -70 -135 l-22 -25 308 -3 c169 -1 309
0 312 2 9 9 -58 163 -86 196 -2 3 -100 5 -217 5 l-213 0 -12 -40z"/>
<path d="M1410 1524 c-38 -12 -330 -159 -330 -166 0 -15 159 -9 184 7 32 21
89 22 121 1 l25 -17 34 71 c19 39 33 78 32 88 -3 17 -37 25 -66 16z"/>
<path d="M421 1321 c-11 -20 -31 -125 -31 -163 l0 -28 134 0 133 0 64 58 c34
31 85 78 112 103 l49 45 -226 1 c-198 0 -228 -2 -235 -16z"/>
<path d="M1110 1319 c13 -24 51 -25 80 -1 23 18 23 18 -34 20 -52 1 -55 -1
-46 -19z"/>
<path d="M1511 1311 l-40 -27 72 -77 c69 -74 74 -77 118 -77 36 0 51 5 69 25
30 32 60 32 90 0 l24 -25 195 2 c124 2 195 7 195 13 -1 6 -5 35 -8 65 -4 30
-12 71 -18 91 l-10 37 -323 -1 -323 0 -41 -26z"/>
<path d="M386 1028 c2 -50 6 -93 9 -97 3 -3 20 10 37 28 17 18 65 58 107 88
42 31 80 59 84 63 5 4 -47 8 -116 9 l-124 1 3 -92z"/>
<path d="M1648 1108 c17 -8 26 -8 34 0 9 9 4 12 -22 11 -33 0 -34 -1 -12 -11z"/>
<path d="M1875 1088 c15 -17 56 -64 93 -104 l65 -72 93 1 c51 1 95 5 99 8 3 4
7 49 8 100 l2 94 -193 2 -194 3 27 -32z"/>
<path d="M2060 890 c8 -5 30 -10 48 -10 18 0 48 -6 67 -14 29 -13 34 -12 39 1
12 30 4 33 -81 33 -61 0 -83 -3 -73 -10z"/>
<path d="M340 533 l0 -133 41 3 41 2 -5 43 c-4 36 -2 42 15 42 13 0 25 -14 38
-44 17 -42 20 -44 58 -43 43 1 43 0 11 66 -17 35 -16 36 5 62 27 32 24 76 -5
108 -22 23 -22 23 -126 25 l-73 1 0 -132z m139 58 c14 -26 -8 -54 -40 -49 -23
3 -27 16 -20 61 2 15 51 6 60 -12z"/>
<path d="M660 591 c-51 -12 -80 -46 -80 -95 0 -61 38 -96 106 -96 50 0 75 18
62 46 -9 19 -14 20 -38 11 -27 -10 -60 -5 -60 10 0 5 21 9 47 10 61 3 79 23
57 64 -18 35 -60 57 -94 50z m30 -67 c0 -8 -10 -14 -25 -14 -29 0 -33 15 -8
29 21 11 33 6 33 -15z"/>
<path d="M1474 588 c-48 -12 -69 -43 -68 -96 1 -60 35 -92 98 -92 56 0 83 19
67 47 -9 19 -15 20 -39 11 -28 -11 -71 -4 -59 9 4 3 28 8 54 11 27 2 50 6 52
8 11 11 0 58 -19 79 -27 29 -46 34 -86 23z m38 -70 c-6 -6 -20 -8 -33 -6 -22
3 -22 4 -5 21 14 14 21 15 32 6 9 -8 11 -16 6 -21z"/>
<path d="M812 572 c-30 -23 -47 -84 -31 -114 18 -35 51 -58 86 -58 51 0 62 8
54 38 -6 22 -13 26 -34 24 -18 -2 -29 3 -37 18 -15 28 3 50 40 50 21 0 29 6
32 24 3 16 0 27 -9 30 -29 11 -78 5 -101 -12z"/>
<path d="M1195 582 c-19 -3 -20 -8 -15 -120 l5 -117 30 0 c26 0 30 4 33 31 3
31 5 32 40 27 72 -10 117 60 86 135 -17 43 -53 56 -106 41 -16 -4 -28 -4 -28
0 0 8 -11 9 -45 3z m113 -68 c16 -29 2 -55 -27 -52 -26 3 -38 26 -27 54 7 19
43 18 54 -2z"/>
<path d="M1627 583 c-24 -4 -28 -8 -23 -26 3 -12 6 -52 6 -88 l0 -67 35 1 36
1 -3 51 c-3 48 -2 50 27 55 27 5 30 9 29 40 -1 36 -3 37 -41 25 -14 -4 -23 -2
-23 4 0 6 -3 10 -7 10 -5 -1 -21 -4 -36 -6z"/>
<path d="M1794 578 c-48 -23 -59 -109 -19 -152 26 -28 72 -35 94 -13 11 10 14
10 18 0 3 -7 18 -13 34 -13 l29 0 0 89 c0 87 -1 89 -25 93 -14 3 -28 1 -31 -3
-3 -5 -14 -5 -24 1 -23 12 -48 12 -76 -2z m85 -65 c12 -23 -4 -53 -29 -53 -26
0 -45 36 -29 56 16 19 46 18 58 -3z"/>
<path d="M2007 583 c-24 -4 -28 -8 -23 -26 3 -12 6 -52 6 -89 l0 -66 33 1 c34
2 34 2 36 75 1 27 5 32 26 32 17 0 25 6 26 18 0 9 2 25 4 36 3 16 -1 18 -31
13 -19 -3 -34 -2 -34 4 0 5 -3 8 -7 8 -5 -1 -21 -4 -36 -6z"/>
<path d="M2155 565 c-30 -29 -34 -92 -9 -130 18 -28 67 -40 119 -31 36 7 45
26 26 55 -8 12 -12 12 -25 2 -17 -14 -58 -11 -63 4 -2 6 18 11 45 13 26 2 51
7 56 12 13 13 -4 69 -27 85 -34 24 -94 19 -122 -10z m85 -47 c0 -5 -11 -8 -25
-8 -29 0 -33 15 -8 29 17 9 32 -1 33 -21z"/>
<path d="M948 553 c-6 -114 14 -156 70 -147 28 5 37 5 90 1 l34 -2 1 88 2 87
-37 0 -37 0 -3 -57 c-3 -51 -6 -58 -25 -61 -24 -4 -28 10 -24 86 2 30 0 32
-34 32 -31 0 -35 -3 -37 -27z"/>
<path d="M1617 353 c17 -43 142 -37 143 8 0 3 -33 6 -74 6 -58 0 -73 -3 -69
-14z"/>
<path d="M943 322 c-19 -45 -73 -192 -73 -198 0 -2 16 -4 35 -4 24 0 35 5 35
15 0 8 3 15 8 16 69 8 74 7 79 -12 4 -15 14 -19 45 -19 34 0 39 3 34 17 -4 10
-25 63 -48 119 -38 96 -42 101 -70 102 -25 1 -32 -5 -45 -36z m60 -83 c3 -12
0 -22 -9 -26 -20 -8 -27 2 -19 26 8 27 21 27 28 0z"/>
<path d="M460 289 l-85 -5 70 -3 c39 -1 154 -4 258 -7 162 -3 187 -2 187 11 0
13 -24 15 -172 13 -95 -2 -211 -6 -258 -9z"/>
<path d="M1513 285 c-38 -16 -50 -47 -29 -77 20 -29 20 -48 0 -48 -26 0 -11
-35 16 -38 27 -3 70 29 70 52 0 7 -10 25 -21 40 l-21 27 21 6 c24 6 25 11 8
34 -11 15 -17 15 -44 4z"/>
<path d="M1800 285 c0 -11 41 -13 242 -9 244 4 335 13 152 15 -54 0 -165 2
-246 4 -121 3 -148 1 -148 -10z"/>
<path d="M1165 280 c-43 -17 -58 -62 -40 -118 10 -32 104 -59 119 -34 10 16
-6 53 -20 48 -24 -9 -44 5 -44 30 0 23 8 28 42 25 21 -2 35 38 17 50 -17 11
-47 10 -74 -1z"/>
<path d="M1309 279 c-29 -11 -49 -46 -49 -85 0 -51 76 -94 108 -62 9 9 12 9
12 0 0 -7 13 -12 30 -12 l30 0 0 70 c0 39 -1 73 -2 78 -2 4 -17 7 -33 8 -17 1
-39 4 -50 7 -11 3 -32 1 -46 -4z m71 -74 c0 -27 -26 -40 -46 -24 -17 14 -18
31 -3 46 17 17 49 3 49 -22z"/>
<path d="M1633 279 c-47 -18 -59 -100 -20 -137 26 -24 66 -29 85 -10 9 9 12 9
12 0 0 -7 13 -12 29 -12 l29 0 0 80 0 80 -36 -1 c-21 0 -46 2 -57 4 -11 3 -30
1 -42 -4z m71 -62 c8 -12 7 -21 -5 -32 -21 -21 -49 -9 -49 20 0 36 34 44 54
12z"/>
<path d="M645 230 c-2 -3 48 -6 111 -8 74 -2 114 1 114 7 0 11 -219 11 -225 1z"/>
<path d="M1800 230 c0 -12 166 -14 174 -2 3 5 -35 9 -85 10 -55 2 -89 -1 -89
-8z"/>
<path d="M1990 230 c0 -8 66 -8 73 0 3 3 -12 5 -34 6 -21 0 -39 -2 -39 -6z"/>
<path d="M690 156 c0 -2 9 -6 20 -9 11 -3 20 -1 20 4 0 5 -9 9 -20 9 -11 0
-20 -2 -20 -4z"/>
<path d="M761 156 c10 -10 57 -14 70 -5 9 6 0 9 -30 9 -24 0 -42 -2 -40 -4z"/>
<path d="M1800 153 c0 -9 85 -11 94 -2 3 3 -16 7 -44 8 -27 1 -50 -2 -50 -6z"/>
<path d="M1910 152 c0 -4 9 -8 20 -8 11 0 20 4 20 8 0 4 -9 8 -20 8 -11 0 -20
-4 -20 -8z"/>
<path d="M2018 153 c7 -3 16 -2 19 1 4 3 -2 6 -13 5 -11 0 -14 -3 -6 -6z"/>
</g>
</svg>
